<?xml version="1.0" standalone="no"?>
<!DOCTYPE svg PUBLIC "-//W3C//DTD SVG 20010904//EN"
 "http://www.w3.org/TR/2001/REC-SVG-20010904/DTD/svg10.dtd">
<svg version="1.0" xmlns="http://www.w3.org/2000/svg"
 width="842.000000pt" height="842.000000pt" viewBox="0 0 842.000000 842.000000"
 preserveAspectRatio="xMidYMid meet">
<metadata>
Created by potrace 1.11, written by Peter Selinger 2001-2013
</metadata>
<g transform="translate(0.000000,842.000000) scale(0.100000,-0.100000)"
fill="#000000" stroke="none">
<path d="M3732 7772 c-12 -2 -20 -8 -17 -13 3 -5 0 -6 -8 -3 -8 3 -31 -2 -52
-10 -20 -9 -41 -13 -46 -10 -5 3 -9 0 -9 -7 0 -7 -3 -10 -6 -7 -3 4 -17 0 -31
-7 -14 -7 -34 -12 -44 -10 -11 2 -19 1 -19 -3 0 -4 -11 -9 -25 -10 -14 -1 -25
3 -25 9 0 5 -4 8 -8 5 -5 -3 -50 6 -101 20 -113 30 -227 39 -235 18 -3 -8 -1
-14 5 -14 6 0 7 -4 4 -10 -3 -5 -2 -10 4 -10 5 0 13 5 17 11 4 8 9 7 15 -2 5
-8 9 -9 9 -3 0 6 7 11 15 11 8 0 15 -3 15 -6 0 -3 24 -7 53 -9 72 -3 77 -4 77
-14 0 -5 4 -7 8 -4 5 3 20 -1 35 -9 26 -13 81 -28 93 -25 4 1 11 -4 15 -12 5
-7 9 -8 9 -3 0 9 21 15 68 18 7 0 11 6 8 12 -3 8 4 10 21 7 20 -4 24 -2 18 8
-5 8 -4 11 2 7 6 -4 23 0 39 8 15 7 31 12 36 9 4 -3 8 -1 8 4 0 5 8 9 18 9 36
0 43 3 36 16 -6 9 -4 9 7 2 12 -9 33 -11 97 -6 6 1 12 7 12 14 0 8 -6 14 -12
15 -7 0 -29 2 -48 4 -19 2 -45 2 -58 0z"/>
<path d="M4774 7720 c0 -11 7 -16 21 -15 11 1 29 -3 40 -9 19 -9 19 -8 5 10
-15 18 -14 18 13 1 15 -10 27 -13 27 -8 0 14 -29 28 -70 34 -29 3 -36 1 -36
-13z"/>
<path d="M5338 7719 c-7 -4 -16 -5 -20 -3 -4 3 -8 -1 -8 -9 0 -8 7 -17 14 -20
11 -4 13 -1 9 11 -6 15 -5 16 12 2 17 -14 18 -13 12 5 -7 20 -7 20 8 1 15 -20
15 -20 15 0 0 16 2 17 10 4 7 -11 10 -11 10 -2 0 9 5 10 19 2 13 -7 22 -7 26
0 3 5 -2 10 -12 11 -10 1 -33 2 -51 3 -18 1 -38 -1 -44 -5z"/>
<path d="M4893 7692 c0 -15 2 -21 4 -14 3 6 11 12 19 12 9 0 13 -3 11 -7 -3
-5 13 -9 35 -10 23 0 45 -7 50 -15 8 -10 9 -10 5 3 -3 9 1 16 8 16 7 0 11 -6
8 -14 -3 -7 0 -13 6 -13 6 0 11 5 11 10 0 6 5 10 11 10 6 0 8 -7 4 -17 -5 -15
-4 -16 6 -5 19 18 33 14 18 -5 -13 -16 -12 -17 3 -4 10 7 25 11 33 7 9 -3 15
0 15 9 0 8 8 15 18 15 14 0 15 -2 2 -10 -8 -5 -10 -10 -4 -10 5 0 19 6 29 14
13 9 25 11 36 5 22 -11 32 0 16 20 -11 14 -10 15 7 1 27 -21 64 -21 59 1 -4
13 -14 17 -38 15 -19 -1 -37 -4 -40 -8 -4 -3 -18 -4 -31 -2 -14 3 -24 0 -24
-7 0 -6 -7 -9 -15 -6 -8 4 -17 2 -21 -4 -4 -6 -11 -6 -20 2 -12 10 -13 8 -8
-7 5 -17 4 -17 -8 -4 -8 9 -31 15 -60 15 -27 0 -48 3 -48 6 0 3 -11 4 -25 1
-16 -3 -25 0 -25 9 0 7 -3 9 -6 6 -4 -3 -14 -2 -24 3 -15 8 -17 5 -17 -18z"/>
<path d="M3219 7157 c-12 -4 -34 -9 -51 -12 -17 -3 -46 -12 -64 -20 -19 -8
-37 -14 -41 -14 -3 1 -9 -3 -12 -8 -26 -35 -161 -70 -161 -41 0 6 -8 4 -17 -3
-14 -12 -16 -12 -11 1 4 12 -4 15 -41 17 -25 1 -63 3 -83 6 -24 2 -38 0 -38
-7 0 -6 -5 -4 -10 4 -9 13 -10 13 -10 0 0 -13 -1 -13 -10 0 -8 12 -11 13 -19
1 -6 -9 -10 -10 -16 -2 -5 9 -10 9 -20 1 -7 -6 -15 -7 -17 -2 -2 5 -17 5 -36
0 -24 -6 -32 -14 -30 -26 2 -13 15 -18 52 -20 34 -2 46 0 41 8 -6 9 -2 9 13 1
11 -6 23 -11 27 -11 3 0 3 5 -1 11 -4 7 1 7 16 -1 15 -8 20 -8 16 -1 -4 6 -2
11 3 11 6 0 11 -5 11 -11 0 -8 4 -8 13 0 10 8 17 7 25 -1 9 -9 12 -9 12 3 0
10 2 11 8 2 7 -11 23 -16 102 -29 19 -3 37 -9 40 -13 11 -14 110 3 110 19 0
26 208 103 269 100 43 -3 51 -1 51 15 0 30 -66 43 -121 22z"/>
<path d="M5250 7120 c-11 -7 -11 -10 -2 -10 7 0 11 -4 8 -8 -2 -4 6 -9 20 -10
13 -1 35 -3 49 -4 14 -1 25 -5 25 -9 0 -3 12 -5 28 -5 15 1 44 -7 65 -16 20
-10 37 -16 37 -12 0 4 7 0 16 -7 15 -12 34 -19 62 -21 6 -1 12 -4 12 -8 0 -13
45 -27 73 -23 21 3 27 0 22 -9 -4 -7 1 -4 9 6 12 15 16 16 16 5 0 -12 2 -12 9
0 5 7 13 11 19 7 6 -3 13 -2 17 3 3 6 12 8 20 4 9 -3 15 1 15 8 0 11 3 11 10
-1 7 -11 10 -11 10 -2 0 10 5 10 20 2 11 -6 20 -7 20 -2 0 4 17 7 38 6 20 -1
37 -3 37 -4 0 -1 23 -3 52 -4 93 -5 101 28 9 38 -26 2 -51 7 -54 10 -3 3 -11
1 -19 -5 -10 -9 -13 -8 -13 0 0 7 -5 9 -10 6 -11 -7 -23 -8 -153 -19 -38 -3
-73 -8 -78 -12 -5 -3 -9 0 -9 5 0 6 -5 11 -11 11 -5 0 -7 -4 -4 -10 3 -6 -1
-7 -9 -4 -9 3 -13 10 -10 15 3 5 -1 6 -8 4 -8 -3 -47 8 -88 25 -74 30 -100 38
-155 45 -16 2 -41 6 -55 9 -14 3 -32 2 -40 -4z"/>
<path d="M7465 6900 c-3 -5 -3 -15 0 -20 6 -9 63 -43 75 -45 3 0 35 -20 71
-44 48 -31 74 -58 98 -97 35 -58 77 -89 102 -73 15 10 130 2 139 -10 6 -7 23
-12 70 -18 19 -3 55 -13 79 -24 76 -33 96 -19 37 26 -46 35 -140 71 -206 78
-30 3 -68 11 -85 18 -16 6 -39 13 -49 14 -11 1 -31 15 -46 32 -64 72 -158 141
-213 157 -65 19 -64 19 -72 6z"/>
<path d="M861 6849 c-52 -30 -181 -150 -181 -168 0 -12 -52 -28 -115 -36 -144
-17 -253 -62 -280 -116 -24 -46 2 -47 84 -5 39 20 81 36 95 36 14 0 36 4 49 9
13 5 55 10 93 12 59 1 73 6 97 27 15 14 27 31 27 37 0 6 29 41 65 77 47 47 83
73 130 93 47 20 65 32 65 46 0 31 -65 25 -129 -12z"/>
<path d="M3465 6548 c-78 -12 -88 -15 -125 -30 -19 -8 -38 -14 -41 -14 -4 1
-16 -7 -26 -17 -11 -9 -23 -14 -26 -10 -4 3 -7 1 -7 -6 0 -7 -4 -9 -10 -6 -5
3 -10 -2 -10 -12 0 -10 -4 -14 -8 -8 -9 12 -32 18 -31 8 3 -20 -2 -26 -11 -13
-8 12 -10 12 -10 1 0 -11 -5 -10 -20 4 -11 10 -23 15 -26 12 -4 -3 -13 0 -20
8 -9 8 -29 13 -49 11 -20 -1 -35 2 -35 8 0 6 -5 4 -10 -4 -8 -12 -10 -12 -10
-1 0 11 -3 11 -16 0 -9 -7 -18 -9 -22 -3 -10 13 -32 16 -32 4 0 -5 -6 -7 -14
-4 -8 3 -17 0 -21 -5 -3 -6 -11 -9 -16 -6 -5 4 -9 1 -9 -5 0 -6 -4 -8 -10 -5
-5 3 -10 -1 -10 -9 0 -9 -6 -16 -12 -16 -9 0 -8 -3 2 -10 8 -5 19 -6 25 -1 5
4 26 8 45 10 19 2 40 7 47 12 7 7 14 6 19 -2 5 -8 3 -9 -6 -4 -9 5 -11 4 -6
-4 4 -6 13 -8 19 -4 16 10 77 10 77 0 0 -5 4 -6 9 -2 5 3 34 -6 65 -20 30 -14
61 -25 68 -25 20 1 63 27 61 37 -2 4 0 8 5 8 4 0 32 12 62 27 71 33 87 39 135
44 61 7 75 14 75 34 0 25 -7 27 -65 18z"/>
<path d="M5070 6496 c0 -7 6 -13 13 -14 62 -9 87 -16 87 -25 0 -6 3 -7 6 -4 4
3 16 2 27 -4 15 -9 18 -8 12 3 -3 7 1 4 9 -6 9 -11 16 -16 16 -12 0 4 25 -6
55 -23 31 -18 60 -29 65 -26 5 3 11 1 14 -4 3 -4 20 -6 38 -4 18 3 40 5 48 5
8 0 24 8 34 17 11 9 16 10 12 4 -4 -8 -1 -13 9 -13 9 0 13 5 10 10 -8 13 18 8
27 -5 5 -6 8 -6 8 1 0 6 14 10 30 9 17 -1 30 3 30 9 0 6 5 4 10 -4 7 -11 10
-11 10 -2 0 8 5 10 13 5 20 -13 66 -10 71 4 3 7 4 13 3 13 -1 0 -17 4 -35 9
-20 6 -30 6 -27 0 3 -5 -1 -6 -9 -3 -9 3 -14 10 -11 14 7 11 -29 7 -37 -5 -5
-6 -8 -4 -8 4 0 11 -4 9 -15 -5 -8 -10 -15 -14 -15 -8 0 6 -7 11 -15 11 -8 0
-12 -4 -9 -9 3 -5 -6 -7 -20 -4 -16 3 -26 0 -26 -7 0 -7 -4 -6 -10 3 -8 12
-10 12 -11 -5 0 -11 -3 -14 -6 -7 -2 6 -11 12 -19 12 -8 0 -14 -6 -14 -12 0
-9 -2 -10 -8 -2 -4 7 -18 11 -32 10 -14 -1 -34 2 -45 8 -11 5 -24 11 -30 12
-5 0 -12 2 -15 3 -3 2 -12 4 -20 6 -8 1 -33 10 -55 20 -66 29 -165 41 -165 21z"/>
<path d="M7684 6132 c-25 -18 -1 -52 59 -82 27 -14 59 -34 71 -45 12 -11 32
-27 45 -35 12 -8 42 -49 65 -90 l42 -75 87 -6 c79 -5 96 -11 202 -62 121 -60
130 -63 140 -47 25 40 -174 162 -288 176 -85 11 -106 23 -144 82 -42 67 -66
90 -137 136 -67 43 -122 61 -142 48z"/>
<path d="M664 6079 c-70 -36 -122 -84 -170 -157 -44 -65 -61 -76 -150 -95
-135 -30 -294 -121 -294 -168 0 -23 53 -66 59 -47 11 37 128 115 156 104 8 -3
15 -1 15 3 0 12 94 35 145 36 81 2 79 1 118 80 47 95 98 145 197 192 81 39 94
55 61 73 -34 17 -77 11 -137 -21z"/>
<path d="M3380 6019 c0 -4 -11 -6 -25 -5 -14 2 -22 -1 -18 -7 4 -6 -2 -8 -16
-4 -16 4 -21 2 -18 -7 3 -7 -1 -13 -9 -13 -7 0 -11 3 -9 7 2 4 -2 7 -10 7 -8
0 -12 -4 -9 -9 3 -4 0 -8 -6 -8 -6 0 -8 -5 -4 -12 5 -9 2 -9 -9 1 -9 7 -17 9
-17 3 0 -5 -9 -12 -20 -15 -11 -3 -20 -1 -20 3 0 5 -8 7 -17 5 -10 -1 -17 -7
-16 -13 1 -5 -5 -16 -14 -24 -10 -8 -14 -8 -10 -1 4 6 3 14 -3 18 -5 3 -10 -1
-10 -9 0 -9 -9 -16 -21 -16 -11 0 -18 -4 -15 -8 2 -4 -4 -9 -15 -9 -10 -1 -19
3 -19 9 0 7 -4 7 -13 -1 -8 -6 -17 -8 -20 -4 -4 3 -7 1 -7 -6 0 -7 -5 -9 -10
-6 -19 12 -91 14 -84 3 4 -7 0 -6 -13 1 -11 6 -23 8 -26 4 -4 -3 -14 0 -23 7
-13 12 -17 11 -26 -1 -7 -11 -11 -11 -15 -1 -2 6 -9 12 -14 12 -6 0 -8 -4 -5
-8 3 -5 -1 -9 -9 -9 -8 0 -12 4 -9 9 3 4 -9 6 -25 4 -17 -2 -31 1 -31 7 0 5
-7 4 -15 -3 -11 -9 -15 -9 -15 -1 0 9 -5 9 -20 1 -17 -9 -20 -8 -20 7 0 14 -2
15 -9 5 -4 -8 -11 -13 -15 -13 -24 3 -36 -1 -30 -10 4 -7 -1 -7 -16 1 -15 8
-20 8 -16 1 5 -7 -7 -11 -36 -11 -31 0 -39 -3 -28 -10 13 -8 13 -10 -2 -10 -9
0 -23 -8 -30 -19 -7 -10 -17 -19 -23 -21 -5 -1 -9 -6 -8 -11 2 -5 -2 -9 -7 -9
-6 0 -10 -4 -10 -10 0 -5 7 -6 17 -3 11 5 14 3 8 -6 -4 -8 3 -7 18 3 13 9 29
16 33 15 19 -3 35 1 30 9 -3 5 1 9 9 9 8 0 12 -4 9 -9 -7 -10 33 -5 43 7 5 4
2 5 -6 0 -10 -5 -12 -4 -7 4 4 6 12 8 19 4 6 -3 25 -6 41 -6 17 0 37 -5 45
-11 11 -8 13 -8 7 2 -4 7 -1 12 9 12 9 0 14 -3 12 -7 -3 -5 23 -9 56 -11 34
-2 65 -8 69 -15 6 -9 8 -9 8 1 0 6 5 12 11 12 5 0 8 -4 5 -8 -3 -5 1 -9 9 -9
8 0 12 5 8 10 -3 5 4 4 16 -3 12 -6 27 -9 34 -7 7 2 20 0 29 -4 10 -6 19 -5
23 2 5 6 12 4 22 -8 12 -15 14 -15 10 -1 -6 16 -5 16 68 5 6 -1 9 4 8 11 -2 6
2 12 8 12 5 0 7 6 3 13 -6 8 -3 8 9 -1 14 -12 21 -11 48 9 18 13 29 18 25 11
-4 -7 -2 -12 3 -12 6 0 11 5 11 10 0 6 7 10 16 10 9 0 12 5 8 13 -5 7 -2 7 10
-2 15 -12 17 -12 14 0 -2 9 4 13 20 11 12 -2 22 2 22 7 0 6 17 11 38 11 27 0
33 3 22 10 -11 7 -3 10 28 10 32 0 41 3 36 13 -5 7 0 6 11 -3 10 -8 16 -10 12
-4 -9 15 55 26 64 11 4 -5 12 -6 20 -1 8 5 23 9 33 9 11 0 21 6 24 13 2 6 -1
12 -7 12 -6 0 -11 7 -11 15 0 9 -10 15 -26 15 -14 0 -23 4 -19 10 3 6 -4 10
-17 11 -13 0 -42 2 -65 3 -24 1 -43 -1 -43 -5z m-305 -209 c3 -6 -1 -7 -9 -4
-18 7 -21 14 -7 14 6 0 13 -4 16 -10z"/>
<path d="M5134 5972 c6 -9 1 -11 -18 -8 -18 3 -29 -2 -41 -20 -9 -14 -11 -24
-5 -24 6 0 8 -6 4 -12 -6 -10 -4 -10 7 0 14 13 33 17 25 4 -2 -4 4 -8 14 -8
10 0 16 5 12 11 -3 5 2 4 11 -4 10 -8 20 -11 23 -8 3 3 20 1 37 -4 18 -5 48
-12 67 -15 19 -3 41 -11 48 -16 7 -6 15 -8 19 -5 3 4 13 1 21 -6 13 -9 14 -9
8 0 -5 9 -2 11 8 7 9 -3 13 -11 9 -18 -4 -6 1 -5 10 3 11 8 17 9 17 2 0 -6 12
-14 28 -17 15 -4 39 -18 54 -31 14 -14 31 -22 37 -19 6 4 20 2 31 -4 11 -6 20
-7 20 -1 0 5 10 7 22 3 16 -4 19 -2 13 8 -5 9 -4 11 3 6 18 -11 52 -16 52 -8
0 4 35 9 78 11 145 5 187 8 207 13 11 3 25 1 32 -4 14 -11 66 -14 82 -4 6 4
11 3 11 -2 0 -5 10 -8 23 -7 12 1 27 -2 34 -7 17 -13 27 10 12 28 -7 8 -18 13
-26 10 -7 -3 -13 -1 -13 5 0 5 -8 9 -17 7 -12 -2 -17 3 -15 12 1 10 -2 9 -13
-4 -12 -16 -15 -16 -15 -5 0 28 -44 37 -183 38 -104 2 -137 -1 -137 -11 0 -9
-3 -9 -12 0 -7 7 -17 8 -28 2 -24 -13 -131 -9 -123 4 4 6 -2 4 -12 -4 -13 -11
-16 -11 -11 -2 6 10 1 13 -20 12 -49 -3 -65 0 -59 10 4 6 3 10 -2 9 -23 -4
-54 2 -49 10 3 4 -2 8 -12 8 -48 0 -57 3 -42 13 11 7 7 10 -20 11 -19 1 -38 1
-42 0 -5 0 -8 3 -8 7 0 4 -8 8 -17 9 -10 0 -40 2 -68 3 -27 2 -56 8 -64 14
-11 8 -13 8 -7 -2z m-4 -26 c0 -3 -4 -8 -10 -11 -5 -3 -10 -1 -10 4 0 6 5 11
10 11 6 0 10 -2 10 -4z"/>
<path d="M5060 5961 c0 -7 -4 -10 -9 -6 -6 3 -15 -4 -21 -15 -6 -11 -9 -20 -8
-21 21 -5 37 -6 36 -1 -1 4 2 15 7 25 4 10 5 21 1 24 -3 4 -6 1 -6 -6z"/>
<path d="M7256 5644 c-6 -16 7 -32 47 -55 10 -5 14 -15 11 -21 -4 -7 -2 -8 5
-4 16 10 85 -62 131 -137 20 -34 45 -62 56 -64 10 -2 39 -5 64 -8 58 -7 160
-37 160 -48 0 -4 4 -6 8 -3 5 3 23 -7 41 -21 18 -15 38 -28 44 -29 7 -1 18 -3
26 -5 28 -7 22 32 -10 69 -43 50 -91 76 -169 92 -36 7 -71 17 -77 23 -7 5 -13
6 -13 3 0 -16 -63 31 -81 61 -33 52 -132 138 -176 151 -52 16 -60 15 -67 -4z"/>
<path d="M1147 5640 c-47 -9 -122 -75 -187 -166 -29 -41 -64 -61 -125 -71 -48
-7 -168 -64 -196 -92 -25 -26 -59 -107 -59 -144 0 -15 13 -7 61 37 33 31 64
57 70 57 5 1 13 2 18 3 5 0 13 4 17 9 4 4 28 7 53 8 35 0 41 2 26 9 -17 7 -14
9 15 10 108 5 130 5 130 -5 1 -14 40 37 40 52 0 28 80 153 98 153 6 0 11 5 10
12 -2 6 23 29 55 50 56 38 69 59 45 75 -17 10 -27 11 -71 3z"/>
<path d="M3513 5456 c-6 -8 -9 -17 -5 -20 3 -4 -2 -4 -12 0 -13 5 -17 4 -12
-4 3 -6 2 -14 -4 -17 -6 -4 -10 -3 -9 2 4 21 -2 47 -9 38 -7 -10 -24 -16 -54
-18 -9 -1 -16 -9 -15 -19 1 -13 7 -16 21 -12 14 5 18 3 13 -9 -4 -11 -2 -14 9
-10 18 7 18 8 -1 27 -14 13 -13 15 3 13 11 0 19 -8 18 -16 -1 -20 25 -21 42
-1 11 13 12 12 3 -6 -6 -12 -7 -25 -3 -30 4 -5 0 -4 -8 2 -8 6 -21 9 -27 8 -7
-1 -19 -2 -25 -3 -7 -2 -4 -6 7 -11 16 -7 17 -9 3 -9 -9 -1 -24 7 -33 16 -14
13 -21 14 -36 5 -12 -8 -20 -8 -24 -2 -4 6 -3 9 2 8 4 -2 9 1 10 6 1 5 7 13
15 17 9 6 5 9 -12 9 -15 0 -32 -6 -39 -12 -11 -10 -13 -10 -7 0 4 6 2 12 -3
12 -6 0 -11 -4 -11 -9 0 -5 -27 -9 -60 -10 -59 -1 -118 -23 -88 -34 7 -2 1 -4
-14 -3 -22 1 -24 4 -15 16 6 8 2 6 -11 -4 -18 -16 -20 -22 -10 -35 10 -12 8
-12 -8 2 -23 19 -44 22 -44 6 0 -6 -12 -9 -27 -7 -21 2 -27 -1 -25 -12 3 -12
1 -13 -9 -2 -7 6 -23 12 -36 12 -13 0 -23 -6 -23 -12 0 -9 -4 -8 -10 2 -5 8
-10 11 -10 6 0 -5 -6 -4 -12 2 -7 5 -22 6 -33 2 -11 -4 -29 -4 -40 -1 -26 8
-47 7 -62 -2 -7 -5 -18 -5 -25 -1 -18 11 -71 11 -85 1 -9 -6 -13 -5 -13 2 0 8
-5 9 -17 2 -10 -5 -26 -5 -40 0 -14 5 -25 4 -29 -2 -4 -7 -10 -7 -18 0 -7 6
-17 6 -26 1 -9 -5 -19 -5 -27 2 -9 7 -13 7 -13 -2 0 -10 -3 -10 -14 -1 -11 9
-16 9 -22 0 -5 -8 -3 -9 6 -4 8 5 11 4 7 -3 -7 -11 -32 -11 -43 1 -4 4 -12 7
-18 7 -6 0 -5 -4 3 -9 8 -5 -4 -9 -35 -9 -27 -1 -50 -6 -52 -12 -2 -5 -8 -10
-13 -10 -6 0 -7 6 -4 13 4 6 0 4 -7 -5 -9 -10 -19 -14 -28 -8 -17 11 -42 1
-33 -14 4 -6 -2 -4 -12 4 -11 9 -16 10 -11 3 4 -8 1 -13 -8 -13 -9 0 -15 -3
-15 -7 3 -19 -2 -34 -9 -29 -5 3 -6 -9 -4 -26 4 -24 2 -29 -9 -23 -12 7 -12 6
-1 -7 15 -19 0 -34 -20 -22 -10 6 -10 5 -1 -7 10 -12 10 -18 0 -29 -8 -9 -8
-11 0 -6 6 3 13 1 15 -5 3 -8 22 -3 58 13 39 18 70 25 111 24 32 -1 57 3 56 8
-2 11 68 12 98 1 16 -6 17 -5 5 4 -12 9 -6 11 28 9 23 -1 42 -6 42 -10 0 -4 5
-8 11 -8 5 0 7 5 4 10 -4 7 17 10 65 7 39 -2 73 1 76 5 3 5 10 5 16 2 15 -9
92 -9 108 1 8 5 15 4 17 -2 2 -5 15 -8 28 -5 15 2 22 9 18 16 -4 6 1 5 10 -3
13 -10 20 -11 31 -1 8 6 34 10 58 9 24 -1 53 3 65 9 12 7 40 12 62 12 22 0 43
5 47 11 3 6 17 9 31 6 15 -3 27 1 30 9 3 9 21 14 49 14 24 0 44 5 44 10 0 6
30 10 68 11 46 0 61 3 47 9 -18 8 -18 9 5 10 14 1 43 1 65 1 30 -1 36 1 25 8
-8 6 -10 11 -5 11 6 0 16 -5 23 -12 8 -8 15 -8 26 1 8 7 20 11 28 10 29 -4 35
2 30 29 -2 15 -10 33 -16 41 -6 9 -7 12 -1 9 6 -4 11 2 11 12 0 18 -1 18 -20
2 -18 -16 -18 -16 -5 5 16 27 11 33 -31 38 l-33 4 19 -22 c19 -22 19 -22 -2
-4 -11 9 -24 14 -28 10 -4 -4 -4 0 0 10 7 20 3 21 -13 3z m-306 -72 c-3 -3
-12 -4 -19 -1 -8 3 -5 6 6 6 11 1 17 -2 13 -5z m383 0 c0 -8 -19 -13 -24 -6
-3 5 1 9 9 9 8 0 15 -2 15 -3z m-287 -39 c-3 -9 -8 -14 -10 -11 -3 3 -2 9 2
15 9 16 15 13 8 -4z m-156 -30 c0 -8 -4 -12 -9 -9 -5 3 -6 10 -3 15 9 13 12
11 12 -6z"/>
<path d="M4985 5430 c3 -5 2 -10 -4 -10 -5 0 -9 -26 -8 -58 1 -38 6 -59 14
-59 7 0 9 5 6 11 -5 8 -3 8 8 0 8 -6 34 -12 59 -13 25 -2 52 -7 61 -11 8 -5
43 -10 76 -12 34 -1 59 -6 57 -10 -4 -7 18 -10 42 -7 4 0 10 -4 14 -10 7 -12
37 -21 77 -25 12 -2 30 -9 39 -17 16 -12 17 -12 9 1 -7 13 -6 13 7 2 13 -10
17 -10 21 0 4 10 6 10 6 1 1 -7 14 -13 30 -13 16 0 31 -4 33 -9 2 -6 51 -11
111 -12 59 -2 107 -6 107 -11 0 -4 5 -8 11 -8 5 0 7 5 4 10 -7 12 8 14 19 3
11 -12 70 -10 78 2 5 6 8 5 8 -2 0 -7 9 -13 21 -13 13 0 18 4 13 13 -5 7 0 6
11 -3 11 -9 16 -10 11 -2 -8 13 6 17 18 5 10 -10 37 -13 31 -3 -6 10 15 8 33
-3 7 -5 12 -3 12 5 0 10 2 10 8 1 5 -8 35 -11 90 -10 45 1 82 -1 82 -5 0 -3
10 -4 22 0 12 3 19 1 15 -5 -3 -5 0 -10 8 -10 8 0 12 4 9 9 -3 4 0 8 5 8 6 0
11 -4 11 -9 0 -12 52 -11 68 2 9 7 11 6 6 -7 -8 -22 12 -21 22 2 4 9 7 20 6
24 -1 4 5 5 13 2 11 -5 13 -2 9 9 -3 9 -2 22 2 29 12 19 14 39 3 32 -5 -3 -9
-1 -9 4 0 5 -12 14 -26 20 -19 9 -24 9 -18 1 5 -9 3 -9 -7 -3 -15 10 -26 11
-134 14 -38 1 -76 7 -84 14 -12 9 -13 8 -6 -4 6 -12 5 -13 -6 -2 -14 13 -33
17 -25 4 2 -4 -4 -8 -14 -8 -10 0 -17 4 -14 8 5 8 -44 0 -59 -9 -6 -3 -7 -1
-3 6 6 8 -3 10 -31 6 -83 -13 -163 -13 -156 -2 5 9 3 9 -8 1 -18 -13 -93 -19
-86 -7 4 6 0 10 -8 10 -8 0 -11 -5 -8 -11 3 -6 0 -5 -8 2 -7 6 -17 12 -22 12
-4 0 -5 -6 -1 -12 6 -10 4 -10 -7 0 -7 6 -28 12 -46 12 -18 0 -33 4 -33 8 0 4
-15 9 -32 10 -56 4 -82 9 -110 21 -16 6 -28 8 -28 5 0 -4 -6 -2 -12 3 -7 5
-33 15 -58 22 -25 7 -53 17 -62 22 -13 6 -18 5 -18 -3 0 -10 -2 -10 -8 -1 -8
12 -48 22 -127 30 -27 3 -54 8 -60 12 -16 12 -88 13 -80 1z m582 -236 c-3 -3
-12 -4 -19 -1 -8 3 -5 6 6 6 11 1 17 -2 13 -5z"/>
<path d="M3277 5419 c7 -7 15 -10 18 -7 3 3 -2 9 -12 12 -14 6 -15 5 -6 -5z"/>
<path d="M2958 5183 c7 -3 16 -2 19 1 4 3 -2 6 -13 5 -11 0 -14 -3 -6 -6z"/>
<path d="M7076 5171 c-4 -6 -23 -11 -42 -11 -19 0 -34 -4 -34 -8 0 -5 -12 -14
-26 -21 -26 -11 -26 -12 -9 -31 12 -13 31 -20 57 -20 24 0 37 -4 33 -10 -3 -5
3 -10 14 -10 11 0 27 -9 35 -21 8 -12 19 -18 25 -14 7 4 10 1 9 -7 -2 -7 3
-12 10 -10 8 1 11 -2 7 -8 -3 -5 -1 -10 5 -10 7 0 10 -7 7 -14 -4 -10 -1 -13
7 -10 16 6 96 -64 96 -84 0 -7 5 -10 10 -7 11 7 77 -92 72 -108 -1 -4 2 -6 7
-3 5 4 16 -2 23 -11 8 -11 26 -18 45 -18 17 1 30 -2 28 -6 -2 -3 12 -6 32 -7
19 -1 42 -7 51 -14 13 -11 14 -11 7 2 -6 12 -5 13 6 3 7 -7 23 -13 36 -13 13
0 23 -5 23 -11 0 -5 4 -8 8 -5 5 3 21 -2 36 -10 16 -7 35 -14 42 -14 8 0 14
-4 14 -10 0 -5 8 -10 18 -10 10 0 23 -5 30 -12 7 -7 12 -9 12 -5 0 4 21 -4 48
-19 68 -38 83 -50 74 -59 -4 -5 -2 -5 5 -1 6 3 23 -5 37 -19 14 -14 29 -26 32
-26 14 -1 22 25 13 48 -5 12 -5 23 -1 23 4 0 2 4 -4 8 -5 4 -20 23 -32 43 -29
48 -134 139 -161 139 -5 0 -29 10 -53 21 -23 12 -54 26 -68 32 -14 5 -33 14
-44 19 -13 7 -16 6 -11 -2 4 -7 -4 -4 -19 5 -14 10 -26 14 -26 9 0 -4 -12 3
-27 17 -14 13 -23 19 -20 12 5 -8 1 -8 -18 0 -14 7 -25 15 -25 20 0 4 -6 7
-14 7 -8 0 -16 3 -18 8 -1 4 -22 24 -46 45 -23 20 -39 37 -35 37 14 0 -83 82
-148 125 -36 24 -76 45 -90 47 -13 1 -27 7 -30 12 -4 4 -10 3 -13 -3z"/>
<path d="M1355 5160 c-50 -5 -63 -10 -98 -39 -32 -26 -139 -135 -182 -185 -46
-55 -133 -115 -169 -118 -14 -1 -26 -6 -26 -10 0 -4 -13 -8 -29 -8 -17 0 -33
-5 -37 -11 -3 -6 -15 -9 -25 -6 -11 3 -19 1 -19 -5 0 -5 -4 -6 -10 -3 -5 3
-10 2 -10 -2 0 -5 -22 -16 -50 -26 -27 -10 -56 -24 -64 -32 -8 -8 -18 -15 -23
-15 -5 0 -15 -9 -23 -21 -8 -11 -23 -30 -32 -41 -23 -27 -68 -157 -68 -197 0
-19 2 -20 21 -9 12 7 30 18 40 24 10 6 16 14 12 17 -7 8 17 32 62 62 53 35 78
46 84 37 8 -12 41 -11 41 1 0 5 -7 7 -15 3 -8 -3 -15 -1 -15 3 0 12 21 19 42
13 10 -2 15 -9 11 -16 -3 -6 0 -5 8 2 11 11 12 14 1 21 -11 7 -10 10 3 15 9 3
20 4 25 1 4 -3 10 1 13 9 3 7 19 13 37 14 17 0 37 5 43 10 13 10 48 19 107 28
45 7 81 24 99 48 8 11 23 28 32 37 10 10 23 27 29 39 19 36 82 100 91 94 5 -3
8 0 7 8 -2 7 4 12 14 10 9 -1 19 2 23 8 3 6 0 7 -9 4 -9 -3 -16 -1 -16 5 0 6
7 11 16 11 8 0 12 5 9 10 -3 6 -3 10 2 10 4 0 24 14 43 30 19 17 40 28 47 26
8 -3 10 1 6 11 -4 10 -2 14 4 10 5 -3 25 5 43 18 19 14 42 25 52 25 30 0 35
31 8 49 -12 8 -28 16 -34 17 -6 2 -24 7 -41 11 -16 5 -52 6 -80 3z"/>
<path d="M6382 5136 c7 -8 16 -12 21 -9 11 7 -2 23 -19 23 -12 0 -12 -2 -2
-14z"/>
<path d="M1336 4958 c3 -5 10 -6 15 -3 13 9 11 12 -6 12 -8 0 -12 -4 -9 -9z"/>
<path d="M3571 4896 c-7 -8 -19 -12 -26 -10 -7 3 -22 1 -33 -5 -15 -8 -21 -8
-24 1 -3 7 -9 8 -19 3 -8 -5 -25 -11 -39 -13 -13 -2 -28 -9 -32 -15 -4 -7 -8
-7 -8 -2 0 12 -76 13 -87 1 -5 -5 -1 -6 7 -1 9 5 12 4 7 -1 -4 -4 -20 -9 -35
-10 -15 0 -35 -4 -45 -9 -10 -4 -21 -5 -24 -2 -3 4 -18 -2 -33 -13 -21 -15
-30 -17 -40 -7 -10 9 -11 9 -5 -1 6 -11 -7 -13 -64 -10 -39 1 -71 -1 -71 -5 0
-5 -4 -6 -9 -3 -5 4 -12 0 -14 -6 -4 -10 -6 -10 -6 0 -1 6 -6 12 -12 12 -5 0
-7 -5 -4 -10 4 -7 -6 -9 -29 -7 -20 3 -39 0 -42 -5 -3 -4 -11 -5 -17 -1 -14 9
-87 10 -87 2 0 -4 -9 -9 -20 -12 -13 -3 -18 -1 -13 6 5 9 3 9 -8 0 -17 -13
-129 -22 -129 -9 0 4 -8 5 -17 1 -10 -4 -31 -9 -48 -10 -16 -2 -34 -4 -38 -4
-5 -1 -6 -4 -4 -8 3 -5 -14 -7 -36 -6 -23 1 -42 2 -42 3 0 1 -10 3 -22 4 -13
2 -23 -2 -23 -7 0 -5 -6 -4 -14 2 -9 8 -16 8 -20 2 -4 -6 -14 -7 -23 -4 -12 5
-14 3 -8 -8 8 -12 6 -12 -8 0 -9 7 -17 9 -17 4 0 -5 -15 -10 -32 -10 -122 -2
-133 -4 -118 -13 8 -5 10 -10 5 -10 -6 0 -17 6 -24 13 -9 7 -11 8 -7 1 4 -8
-6 -12 -30 -12 -57 0 -60 -6 -70 -144 -4 -54 -2 -78 5 -78 6 0 11 4 11 8 0 4
10 9 23 10 36 5 62 9 65 12 7 7 29 5 41 -4 11 -8 13 -8 7 2 -5 9 6 12 44 12
28 0 49 4 46 8 -2 4 4 8 14 9 11 1 22 -2 25 -8 4 -5 14 -9 23 -8 14 0 13 2 -3
9 -15 6 -9 8 22 8 29 0 41 -4 36 -12 -4 -6 1 -5 10 3 9 7 23 11 30 8 8 -3 20
-1 28 3 8 5 19 5 26 -1 7 -6 18 -7 25 -3 23 14 40 16 173 20 72 2 148 6 170 9
22 4 54 8 72 9 17 2 36 6 41 10 6 3 14 2 17 -4 5 -8 11 -8 20 0 10 8 14 7 18
-2 4 -10 6 -10 6 0 1 13 27 17 34 5 2 -5 3 -3 1 4 -2 6 11 11 32 11 19 0 41 5
48 11 10 8 16 9 21 1 3 -5 12 -10 18 -10 7 0 6 4 -3 10 -10 7 2 9 40 8 30 -1
54 2 53 8 -1 5 17 9 40 8 23 0 53 6 66 14 13 8 20 9 17 3 -4 -6 -2 -11 3 -11
6 0 11 4 11 9 0 11 59 20 62 9 2 -4 16 -1 31 7 15 8 25 10 22 5 -4 -6 -1 -10
4 -10 6 0 11 5 11 11 0 8 6 7 17 -2 13 -11 15 -11 9 -1 -6 10 2 13 31 12 47
-2 96 8 104 21 10 18 10 91 -1 84 -13 -8 -8 18 5 27 6 5 5 8 -2 8 -8 0 -13 15
-13 41 0 24 -4 38 -10 34 -5 -3 -10 -2 -10 4 0 10 -25 9 -36 -2 -4 -4 -13 -2
-19 3 -9 7 -16 6 -24 -4z"/>
<path d="M1244 4872 c4 -3 14 -7 22 -8 9 -1 13 0 10 4 -4 3 -14 7 -22 8 -9 1
-13 0 -10 -4z"/>
<path d="M4917 4853 c-3 -5 -6 -26 -8 -48 -1 -22 -5 -44 -8 -50 -11 -18 -8
-75 3 -74 6 1 36 0 66 -1 45 -2 51 -4 30 -11 -24 -8 -23 -8 5 -5 17 2 39 6 50
11 16 6 17 5 5 -4 -12 -10 -8 -11 18 -7 18 2 32 0 32 -6 0 -6 6 -5 15 2 11 9
15 9 15 1 0 -7 4 -10 9 -6 5 3 13 1 16 -5 5 -8 12 -7 23 2 12 10 14 10 8 1 -5
-10 3 -13 33 -13 21 0 41 -5 43 -11 2 -5 18 -11 35 -11 18 -1 31 -4 28 -7 -2
-4 4 -7 13 -8 101 -6 122 -9 122 -16 0 -4 4 -6 9 -2 5 3 12 1 15 -4 3 -5 15
-7 27 -4 12 4 25 0 30 -8 6 -10 9 -10 9 -1 0 6 5 12 11 12 5 0 7 -5 3 -11 -4
-7 -1 -10 7 -7 8 3 24 1 37 -3 13 -5 22 -5 22 1 0 5 7 7 16 3 12 -4 13 -8 3
-13 -7 -5 -2 -7 14 -7 14 1 23 5 20 10 -2 4 3 7 12 7 9 0 14 -4 11 -8 -2 -4 6
-8 19 -8 13 0 22 3 20 7 -6 8 46 9 60 1 15 -10 36 -11 30 -3 -2 4 2 8 10 8 8
0 12 -4 9 -8 -3 -5 30 -9 73 -9 206 -2 248 -4 255 -14 5 -7 8 -7 8 2 0 7 5 10
11 7 13 -8 48 -13 116 -16 29 -1 50 -5 48 -9 -2 -3 7 -6 21 -6 13 0 24 4 24
10 0 5 7 1 16 -10 8 -10 12 -12 8 -4 -6 11 -2 10 13 -2 11 -10 26 -18 34 -18
8 0 19 -3 24 -8 6 -4 9 -6 8 -3 -1 2 2 12 7 22 8 13 6 20 -7 28 -10 6 -13 11
-6 11 12 0 12 17 0 38 -5 7 -3 12 3 12 6 0 8 5 5 10 -4 6 -12 7 -18 3 -7 -4
-7 0 1 10 8 9 11 21 7 27 -3 5 0 10 7 11 7 0 3 4 -9 9 -13 5 -23 14 -23 20 0
6 -4 8 -10 5 -5 -3 -10 2 -11 12 0 16 -1 16 -9 -2 -5 -11 -9 -14 -9 -6 -1 11
-4 11 -18 0 -14 -12 -16 -12 -11 1 7 19 -32 25 -44 7 -6 -9 -8 -9 -8 1 0 8
-10 13 -27 12 -53 -4 -74 0 -67 11 5 8 1 8 -14 0 -12 -7 -23 -7 -26 -2 -6 8
-112 12 -373 14 -45 0 -81 3 -79 6 2 3 -6 6 -19 6 -13 0 -21 -3 -18 -7 2 -5
-1 -8 -6 -8 -6 0 -11 5 -11 10 0 6 -11 10 -25 10 -14 0 -25 -6 -25 -12 0 -10
-2 -10 -8 -1 -5 7 -20 14 -35 15 -15 1 -27 6 -27 11 0 4 -17 7 -37 7 -43 -1
-62 2 -82 14 -10 6 -12 5 -7 -2 4 -7 2 -12 -3 -12 -6 0 -11 4 -11 9 0 5 -12
11 -26 14 -20 3 -24 1 -20 -12 3 -9 -2 -6 -10 7 -13 17 -26 22 -60 22 -24 0
-44 5 -44 11 0 5 -8 9 -17 8 -48 -4 -94 2 -87 12 4 7 -8 10 -37 9 -71 -3 -100
0 -95 8 6 11 -36 9 -53 -2 -10 -6 -12 -6 -7 2 5 9 -8 12 -43 12 -27 0 -52 -3
-54 -7z m1010 -299 c-3 -3 -12 -4 -19 -1 -8 3 -5 6 6 6 11 1 17 -2 13 -5z
m567 -52 c3 -5 -1 -9 -9 -9 -8 0 -12 4 -9 9 3 4 7 8 9 8 2 0 6 -4 9 -8z"/>
<path d="M1216 4813 c-6 -14 -5 -15 5 -6 7 7 10 15 7 18 -3 3 -9 -2 -12 -12z"/>
<path d="M1156 4752 c-3 -5 1 -9 9 -9 8 0 12 4 9 9 -3 4 -7 8 -9 8 -2 0 -6 -4
-9 -8z"/>
<path d="M1150 4719 c0 -5 5 -7 10 -4 6 3 10 8 10 11 0 2 -4 4 -10 4 -5 0 -10
-5 -10 -11z"/>
<path d="M1695 4711 c-3 -6 -15 -11 -26 -11 -10 0 -19 -5 -19 -12 0 -6 -3 -8
-7 -5 -3 4 -15 -1 -26 -10 -10 -10 -22 -17 -26 -16 -3 0 -19 -5 -36 -13 -16
-8 -22 -12 -12 -9 27 7 20 -2 -14 -19 -17 -9 -36 -13 -42 -9 -6 3 -7 1 -3 -5
4 -7 -4 -22 -18 -34 -13 -13 -40 -37 -59 -55 -23 -21 -38 -29 -46 -22 -8 6 -8
6 -1 -3 8 -9 -9 -31 -61 -80 -39 -38 -73 -68 -76 -68 -2 0 -14 -9 -26 -21 -12
-11 -30 -18 -39 -15 -11 2 -18 -1 -18 -11 0 -8 -4 -12 -9 -8 -6 3 -14 -2 -19
-11 -5 -9 -12 -16 -15 -16 -15 1 -67 -23 -67 -30 0 -4 -7 -8 -16 -8 -9 0 -12
5 -8 12 5 7 -5 3 -20 -10 -16 -12 -32 -19 -37 -16 -5 3 -9 1 -9 -5 0 -6 -16
-13 -35 -17 -19 -3 -35 -9 -35 -13 0 -4 -15 -12 -33 -19 -30 -11 -104 -49
-162 -85 -23 -14 -88 -64 -124 -96 -21 -18 -24 -30 -25 -96 0 -41 3 -75 8 -75
5 0 3 -6 -3 -14 -8 -10 -9 -16 -1 -21 6 -3 8 -10 5 -15 -11 -18 6 -38 28 -32
22 6 55 32 40 32 -4 0 3 7 15 16 13 9 30 13 39 10 14 -6 14 -4 2 10 -12 15
-11 16 11 10 19 -6 22 -5 10 3 -13 10 -13 12 0 20 8 5 18 7 24 4 5 -3 6 -1 2
5 -10 17 15 51 32 44 10 -3 13 -1 8 6 -4 7 -1 12 10 12 14 0 15 2 3 17 -13 15
-12 15 10 4 13 -7 21 -8 17 -2 -4 5 3 15 15 21 17 10 20 9 14 -2 -3 -7 1 -4 9
6 9 11 16 16 16 11 0 -5 7 0 16 11 8 10 13 12 9 4 -4 -9 0 -8 8 3 15 18 15 18
20 0 4 -14 5 -15 6 -2 1 19 29 30 92 38 5 0 8 4 6 9 -3 4 6 8 19 9 47 4 54 6
54 17 0 6 5 4 10 -4 8 -13 10 -12 10 4 0 13 5 17 20 13 11 -3 18 0 17 7 -1 6
4 10 11 9 6 -2 12 2 12 7 0 6 5 10 11 10 5 0 7 -6 4 -12 -4 -7 0 -5 8 4 8 10
17 15 20 11 4 -3 7 -1 7 7 0 10 3 10 14 1 11 -9 16 -9 22 0 5 8 3 9 -6 4 -9
-6 -11 -4 -5 4 4 7 16 11 26 8 10 -3 17 -2 16 2 -1 3 3 7 8 9 6 2 14 10 18 18
4 8 15 14 22 14 8 0 15 7 15 16 0 13 3 14 14 5 12 -10 17 -8 26 9 6 11 9 24 6
29 -3 4 1 8 9 8 8 0 11 -5 8 -10 -3 -6 -1 -7 5 -3 7 4 12 14 12 22 0 9 5 12
12 8 8 -5 9 -2 5 10 -5 13 -3 17 7 13 10 -4 13 -1 9 9 -4 10 0 12 13 7 12 -4
15 -3 10 5 -4 7 -1 12 8 12 8 0 18 5 22 12 4 6 3 8 -3 5 -5 -3 -10 0 -10 7 0
8 7 12 15 8 10 -3 13 -1 8 6 -5 8 -1 10 10 5 13 -5 15 -3 9 7 -6 10 -4 12 10
6 14 -5 16 -4 6 8 -9 11 -8 15 4 20 11 4 14 2 9 -6 -4 -7 -3 -8 4 -4 6 4 8 14
5 24 -3 9 -3 14 1 10 8 -7 18 0 56 34 13 12 20 13 24 5 2 -7 5 -4 5 6 1 9 8
17 17 17 8 0 13 4 10 9 -3 5 1 12 10 15 10 4 13 2 9 -7 -4 -6 1 -3 9 7 9 11
16 16 16 11 0 -5 5 -4 11 2 6 6 19 9 28 6 9 -4 13 -3 9 2 -4 4 7 17 25 29 37
25 45 55 23 89 -9 13 -13 27 -9 30 3 4 1 7 -5 7 -7 0 -12 7 -12 15 0 8 -4 15
-10 15 -5 0 -9 6 -7 13 3 15 -68 23 -78 8z"/>
<path d="M6698 4687 c-25 -53 -17 -106 23 -139 19 -16 46 -34 61 -40 14 -7 24
-16 22 -20 -3 -4 4 -8 16 -8 12 0 18 -4 15 -10 -3 -5 -1 -10 4 -10 22 0 27 -3
50 -31 13 -16 28 -29 33 -29 14 0 74 -62 70 -73 -1 -4 2 -6 7 -3 5 4 15 0 23
-7 7 -8 20 -16 28 -20 12 -4 11 -6 -2 -6 -10 -1 -18 -5 -18 -11 0 -5 7 -7 15
-4 18 7 51 -22 32 -29 -7 -3 -5 -6 5 -6 9 -1 36 -19 58 -41 22 -22 45 -40 51
-40 5 0 19 -9 31 -20 12 -11 34 -20 50 -20 28 0 34 -2 96 -34 17 -9 32 -15 32
-12 0 3 15 -3 33 -14 17 -11 45 -20 60 -20 19 0 26 -4 21 -12 -4 -6 -3 -8 3
-5 5 3 22 -1 37 -9 16 -7 35 -14 42 -14 8 0 14 -4 14 -10 0 -5 7 -10 16 -10 8
0 12 -4 9 -10 -4 -6 5 -10 20 -10 14 0 24 -4 20 -9 -3 -5 11 -15 30 -22 19 -7
35 -17 35 -21 0 -4 8 -8 18 -8 14 0 15 -2 2 -10 -12 -8 -9 -10 13 -10 15 0 27
-4 27 -10 0 -5 7 -10 16 -10 8 0 12 -4 9 -10 -3 -5 1 -10 10 -10 9 0 13 -4 10
-10 -3 -5 -1 -10 5 -10 15 0 41 -26 33 -34 -4 -3 1 -6 10 -6 10 0 17 -5 17
-12 0 -25 20 8 25 42 15 100 17 117 15 140 -1 14 -2 31 -3 38 0 6 -6 12 -14
12 -7 0 -12 3 -10 8 1 4 -1 8 -6 9 -15 5 -35 28 -30 36 2 4 1 6 -4 5 -12 -4
-73 25 -73 34 0 5 -7 8 -15 8 -8 0 -15 4 -15 8 0 8 -60 36 -72 33 -5 0 -8 2
-8 7 0 4 -15 13 -32 20 -18 8 -45 20 -59 27 -14 8 -29 12 -33 8 -3 -3 -6 -1
-6 5 0 7 -9 12 -20 12 -34 0 -182 68 -174 81 2 4 -5 5 -16 2 -11 -3 -20 0 -20
6 0 6 -8 11 -17 11 -15 0 -16 2 -3 10 11 7 7 10 -17 10 -18 0 -33 5 -33 10 0
6 -7 10 -16 10 -8 0 -12 5 -9 10 3 6 0 10 -9 10 -20 0 -77 50 -70 61 3 5 2 8
-3 7 -5 -2 -29 17 -53 42 -25 25 -57 52 -72 59 -15 8 -25 18 -22 23 3 4 0 8
-6 8 -6 0 -20 9 -32 20 -12 11 -34 25 -49 32 -15 7 -25 16 -23 20 3 4 -4 8
-15 8 -12 0 -21 5 -21 10 0 6 -9 10 -21 10 -11 0 -17 5 -14 10 4 6 -5 10 -19
10 -14 0 -26 5 -26 10 0 6 -17 10 -38 10 -33 0 -40 -4 -54 -33z"/>
<path d="M830 4610 c0 -5 5 -10 10 -10 6 0 10 5 10 10 0 6 -4 10 -10 10 -5 0
-10 -4 -10 -10z"/>
<path d="M1175 4329 c-4 -6 -5 -12 -2 -15 2 -3 7 2 10 11 7 17 1 20 -8 4z"/>
<path d="M3668 4316 c-12 -12 -18 -13 -22 -3 -3 9 -8 8 -18 -3 -7 -9 -21 -14
-32 -12 -10 2 -23 -1 -29 -7 -7 -7 -16 -7 -30 0 -13 8 -17 8 -13 1 4 -7 -4
-10 -21 -8 -16 1 -38 -1 -50 -5 -12 -5 -23 -4 -25 1 -2 6 -16 3 -31 -5 -15 -8
-25 -9 -21 -4 4 7 -1 7 -15 0 -12 -7 -26 -9 -31 -6 -6 3 -10 1 -10 -5 0 -8 -6
-8 -20 0 -11 6 -20 7 -20 2 0 -5 -11 -8 -25 -7 -14 2 -25 0 -25 -4 0 -5 -12
-7 -27 -7 -16 1 -38 -2 -50 -6 -13 -4 -23 -4 -23 0 0 4 -11 7 -25 7 -14 0 -25
-4 -25 -8 0 -5 -4 -6 -9 -2 -5 3 -13 0 -16 -6 -4 -5 -13 -8 -21 -5 -8 3 -14 1
-14 -5 0 -6 -7 -6 -17 -2 -16 7 -49 9 -63 3 -3 -1 -21 -3 -40 -4 -19 -1 -45
-7 -57 -14 -13 -7 -23 -9 -23 -5 0 7 -44 9 -60 3 -3 -1 -16 -1 -29 0 -13 1
-21 -2 -18 -7 3 -5 -6 -8 -21 -8 -15 1 -35 -2 -44 -7 -10 -5 -19 -4 -23 2 -4
7 -13 7 -26 0 -11 -6 -24 -8 -29 -5 -6 3 -10 2 -10 -2 0 -5 -16 -10 -37 -11
-20 -2 -39 -5 -43 -7 -3 -2 -12 0 -20 5 -8 5 -21 5 -31 -1 -12 -6 -19 -5 -21
2 -3 8 -10 6 -20 -5 -11 -10 -18 -12 -20 -5 -3 8 -9 7 -19 -3 -13 -13 -55 -15
-67 -3 -2 2 -15 0 -28 -5 -13 -5 -26 -5 -29 -1 -3 5 -14 7 -25 4 -11 -3 -17
-10 -13 -17 4 -6 -2 -4 -12 4 -15 12 -17 12 -10 1 6 -11 4 -13 -8 -8 -10 3
-17 2 -17 -3 0 -5 -7 -7 -16 -3 -13 5 -13 7 -2 14 9 6 7 9 -9 9 -13 0 -24 8
-28 20 -10 33 -55 80 -76 80 -11 0 -17 -4 -14 -10 3 -5 0 -10 -8 -10 -8 0 -18
-7 -21 -16 -3 -8 -10 -13 -15 -10 -5 3 -12 -1 -15 -10 -3 -8 -10 -13 -15 -10
-5 3 -12 -1 -15 -10 -5 -13 -9 -14 -21 -4 -13 11 -14 10 -10 -1 3 -8 -4 -20
-16 -27 -17 -11 -20 -11 -14 0 3 7 1 6 -7 -2 -7 -9 -29 -27 -48 -40 -19 -13
-37 -27 -40 -30 -3 -4 -13 -9 -22 -13 -10 -3 -18 -14 -18 -23 0 -11 -5 -14
-16 -10 -11 4 -18 -1 -21 -15 -4 -16 -8 -17 -14 -7 -7 10 -9 10 -9 1 0 -7 -7
-13 -16 -13 -11 0 -15 -6 -11 -19 3 -14 1 -18 -9 -14 -8 3 -14 0 -14 -7 0 -6
-4 -9 -9 -5 -5 3 -13 0 -17 -6 -4 -7 -3 -9 4 -5 6 3 14 1 18 -6 4 -7 4 -10 -1
-6 -12 11 -65 -20 -65 -38 0 -8 -5 -12 -10 -9 -6 3 -13 0 -16 -9 -3 -8 -13
-17 -21 -20 -14 -6 -14 -4 -3 11 8 10 2 6 -13 -9 -15 -15 -27 -33 -27 -40 0
-9 -3 -9 -10 2 -9 13 -14 7 -11 -12 0 -4 -6 -5 -14 -2 -9 4 -15 0 -15 -8 0 -8
-12 -20 -26 -26 -20 -10 -24 -10 -19 0 4 7 0 5 -8 -4 -8 -10 -18 -18 -22 -18
-4 0 -20 -9 -36 -21 -16 -11 -29 -17 -29 -14 0 4 -9 -3 -21 -16 -11 -13 -18
-18 -14 -11 3 6 2 12 -4 12 -5 0 -11 -5 -13 -10 -2 -6 -13 -12 -26 -13 -21 -1
-27 -10 -23 -31 1 -5 -5 -4 -13 4 -11 8 -16 9 -16 1 0 -6 -9 -11 -21 -11 -11
0 -17 -4 -14 -10 3 -5 1 -10 -4 -10 -6 0 -11 5 -11 12 0 6 -6 4 -13 -7 -8 -10
-19 -15 -25 -11 -7 4 -12 2 -12 -3 0 -6 -9 -11 -20 -11 -11 0 -20 -3 -20 -7 0
-8 -48 -33 -62 -33 -5 0 -19 -9 -31 -21 -12 -11 -30 -18 -39 -16 -10 3 -16 0
-15 -7 1 -6 -6 -10 -15 -10 -10 1 -16 -2 -13 -6 3 -5 -8 -17 -25 -26 -16 -10
-30 -22 -30 -27 0 -5 -12 -7 -26 -4 -18 3 -22 1 -15 -6 8 -8 0 -17 -26 -31
-51 -29 -60 -48 -45 -89 7 -18 12 -54 12 -79 0 -24 3 -48 7 -52 7 -6 13 -29
15 -53 1 -7 5 -10 9 -7 4 2 10 0 13 -5 7 -12 46 -2 46 11 0 6 7 7 16 4 9 -3
12 -2 9 5 -4 6 2 13 14 16 11 3 18 9 15 14 -3 5 -1 9 5 9 5 0 23 14 40 31 17
17 35 28 40 25 11 -7 23 22 16 35 -4 5 0 7 7 4 7 -3 26 7 43 22 16 16 31 27
32 26 8 -8 23 -1 18 7 -4 6 -3 9 2 8 16 -4 82 26 76 35 -4 6 -1 7 6 3 7 -5 21
0 32 10 10 9 19 13 19 9 0 -4 8 -1 18 7 9 8 38 24 65 36 26 12 47 25 47 28 0
3 -6 2 -12 -2 -7 -4 -9 -3 -5 2 4 4 18 9 30 9 13 0 21 6 19 13 -1 8 2 11 7 7
11 -6 49 12 69 35 12 13 13 13 6 0 -5 -9 1 -8 15 5 13 11 24 19 25 17 4 -10
36 13 33 23 -3 6 0 12 6 12 7 0 35 14 64 31 28 17 55 27 59 24 5 -4 3 1 -4 10
-11 14 -10 16 5 14 10 -2 25 4 33 13 8 9 22 17 30 19 8 2 17 8 18 13 2 5 8 9
13 9 12 0 49 37 49 49 0 5 7 12 16 15 14 6 15 4 4 -11 -7 -10 1 -3 19 16 17
19 31 28 31 20 1 -10 4 -8 11 4 6 9 14 15 19 12 5 -3 12 0 16 6 5 8 3 9 -7 4
-12 -7 -12 -6 -1 7 8 10 20 14 29 11 10 -4 14 -2 10 4 -4 6 0 14 9 17 8 3 12
11 8 17 -5 8 -3 9 6 4 10 -6 12 -4 6 11 -6 15 -5 16 5 7 10 -10 15 -9 26 5 10
12 12 12 8 2 -4 -9 0 -7 9 3 8 10 23 17 33 15 10 -2 28 8 41 22 l24 25 -19
-35 c-10 -19 -22 -38 -26 -41 -5 -3 -2 -9 6 -12 8 -3 20 0 26 6 7 7 11 8 9 2
-2 -5 0 -10 3 -10 3 0 13 -6 22 -14 12 -9 17 -10 17 -2 0 7 5 9 12 5 16 -10
58 -12 58 -2 0 4 11 3 25 -2 20 -7 27 -6 31 4 3 9 19 13 45 12 21 0 39 2 39 5
0 13 38 17 50 5 8 -8 10 -7 5 4 -4 12 4 14 47 12 29 -2 67 -2 83 -1 17 0 36 1
43 2 6 0 12 3 12 7 0 3 39 7 87 9 48 1 96 7 106 13 14 7 18 7 12 -2 -4 -7 4
-6 22 3 18 10 35 12 43 7 8 -5 21 -5 31 1 11 5 19 5 21 -1 2 -6 14 -4 31 5 15
8 25 10 22 6 -3 -5 2 -11 10 -14 10 -4 12 -1 8 10 -4 11 -2 14 8 11 8 -3 24
-1 37 3 12 5 22 5 22 0 0 -5 9 -7 20 -4 11 3 17 10 14 15 -4 6 4 5 16 -2 12
-7 20 -8 16 -2 -8 13 40 22 53 9 5 -5 15 -6 23 -1 18 11 36 15 78 17 19 1 41
8 49 15 10 9 17 10 24 3 6 -6 16 -11 22 -11 5 0 3 5 -5 10 -12 8 -11 10 6 10
11 0 26 -6 33 -12 10 -9 12 -9 7 -1 -4 8 2 11 21 9 16 -1 34 2 41 7 8 6 12 6
12 -2 0 -9 5 -9 20 -1 11 6 25 8 30 5 5 -3 11 -1 14 4 4 5 32 10 63 10 31 0
59 3 62 8 3 4 12 9 18 10 18 4 96 6 108 3 33 -8 35 0 35 131 0 78 -4 128 -9
124 -5 -3 -12 -1 -16 4 -3 7 -15 7 -30 1 -16 -6 -25 -5 -27 2 -3 7 -10 4 -20
-6z"/>
<path d="M4844 4268 c-4 -7 -9 -23 -10 -36 -2 -21 -1 -22 14 -10 15 11 15 11
5 -3 -7 -9 -9 -20 -5 -24 4 -5 2 -5 -4 -2 -19 11 -22 -80 -4 -99 13 -13 13
-14 -2 -8 -10 3 -18 3 -18 -1 0 -4 8 -14 18 -22 9 -8 11 -12 5 -8 -7 3 -13 2
-13 -4 0 -6 15 -10 33 -9 61 2 88 -2 82 -11 -3 -6 2 -8 12 -6 68 16 69 16 48
6 -20 -10 -20 -10 1 -10 11 -1 25 4 32 11 9 9 12 9 12 -1 0 -7 4 -10 9 -6 5 3
12 1 16 -4 4 -7 15 -7 30 -1 16 6 25 6 25 0 0 -5 7 -6 17 -3 10 4 14 2 10 -4
-3 -5 0 -10 8 -10 8 0 12 4 9 9 -3 4 0 8 5 8 6 0 11 -5 11 -12 0 -9 3 -9 12 0
7 7 17 12 23 12 5 0 3 -5 -5 -10 -12 -8 -10 -10 8 -10 16 0 21 4 16 13 -6 10
-4 10 7 0 7 -7 25 -13 39 -13 15 0 30 -3 34 -7 12 -12 36 -12 30 0 -5 8 -2 7
7 0 7 -7 30 -13 51 -13 24 0 38 -5 38 -12 0 -10 3 -9 9 1 5 8 10 9 12 2 2 -5
32 -11 66 -12 34 -1 60 -6 57 -10 -3 -5 0 -9 5 -9 6 0 11 6 11 13 0 9 2 9 8 0
8 -13 152 -22 152 -10 0 5 5 5 10 2 6 -4 8 -10 6 -14 -3 -4 39 -8 92 -10 53
-1 101 -7 107 -12 5 -5 14 -9 20 -9 5 0 3 5 -5 11 -12 9 -11 9 5 4 11 -4 29
-9 40 -10 11 -2 22 -4 25 -5 3 -1 18 -1 33 0 15 1 35 -4 44 -12 14 -11 16 -11
8 2 -7 12 -6 13 6 4 15 -11 52 -16 142 -17 32 0 52 -4 45 -9 -9 -5 -8 -8 5 -8
9 0 17 5 17 10 0 6 5 10 11 10 5 0 8 -4 4 -9 -6 -11 31 -9 59 4 17 8 17 9 -5
27 -22 18 -23 19 -2 9 12 -6 27 -19 32 -29 6 -9 11 -11 11 -4 0 6 5 11 11 10
6 -2 14 4 16 12 4 13 3 13 -6 0 -9 -12 -11 -13 -11 -1 0 8 -3 11 -7 8 -8 -9
-33 12 -33 27 0 6 5 4 10 -6 6 -9 18 -15 28 -13 23 3 54 -14 46 -26 -3 -6 0
-10 7 -8 28 3 46 -2 65 -18 10 -10 31 -24 46 -32 15 -8 37 -22 47 -33 11 -10
25 -18 31 -18 5 0 10 -4 10 -10 0 -5 5 -10 11 -10 12 0 40 -26 34 -32 -2 -2 6
-5 18 -5 12 -1 23 -7 25 -13 2 -5 11 -10 20 -10 8 0 12 -3 9 -7 -4 -3 10 -18
31 -31 20 -14 43 -34 50 -44 7 -10 20 -18 29 -18 10 0 13 -6 9 -16 -4 -9 -2
-13 5 -8 6 4 14 2 18 -4 3 -5 17 -12 31 -13 14 -2 28 -8 31 -12 3 -4 15 -9 27
-10 11 0 18 -5 16 -9 -3 -4 6 -8 20 -8 14 0 26 -4 26 -10 0 -5 8 -10 18 -10
25 0 113 -45 105 -54 -3 -3 3 -6 15 -6 12 0 22 -4 22 -8 0 -5 19 -15 43 -22
23 -8 68 -31 99 -52 31 -21 62 -38 67 -38 6 0 11 -4 11 -10 0 -5 7 -10 15 -10
8 0 15 -4 15 -10 0 -5 6 -10 13 -10 7 0 19 -9 27 -20 8 -11 20 -20 27 -20 7 0
13 -4 13 -10 0 -5 7 -10 15 -10 8 0 15 -4 15 -10 0 -5 7 -10 15 -10 8 0 15 -4
15 -10 0 -5 7 -10 15 -10 8 0 15 -4 15 -10 0 -5 12 -10 26 -10 14 0 23 -4 20
-9 -4 -5 3 -7 14 -4 11 3 21 8 21 12 1 3 3 22 5 41 2 19 6 44 8 55 3 11 5 24
5 29 -1 5 5 12 11 16 17 11 25 80 9 80 -7 0 -10 3 -6 6 8 9 -18 34 -35 34 -8
0 -23 8 -34 18 -11 9 -31 23 -43 30 -70 40 -93 52 -101 52 -9 0 -36 19 -65 48
-8 6 -21 12 -30 12 -9 0 -14 4 -11 8 3 5 -10 15 -29 22 -19 7 -32 17 -29 22 5
7 -10 12 -28 9 -5 0 -8 3 -8 9 0 5 -16 10 -35 10 -19 0 -35 5 -35 10 0 6 -11
10 -25 10 -14 0 -25 5 -25 10 0 6 -6 10 -13 10 -18 0 -67 24 -67 33 0 4 -11 7
-25 7 -14 0 -25 5 -25 10 0 6 -7 10 -15 10 -8 0 -15 3 -15 8 0 4 -14 13 -32
21 -33 15 -46 25 -106 79 -20 17 -44 32 -55 32 -10 0 -15 5 -12 10 3 6 2 10
-4 10 -14 0 -60 47 -53 54 3 3 -2 6 -12 6 -9 0 -14 5 -11 10 3 6 -1 10 -9 10
-9 0 -16 5 -16 10 0 6 -7 10 -15 10 -8 0 -15 5 -15 10 0 6 -7 10 -15 10 -8 0
-15 5 -15 10 0 6 -6 10 -14 10 -7 0 -27 14 -44 30 -18 17 -39 30 -47 30 -9 0
-13 5 -10 10 3 6 -3 10 -14 10 -12 0 -21 5 -21 10 0 6 -7 10 -15 10 -8 0 -15
5 -15 10 0 6 -9 10 -21 10 -11 0 -17 5 -14 10 3 6 -5 10 -19 10 -14 0 -28 5
-31 10 -3 6 -15 10 -26 10 -10 0 -19 5 -19 12 0 15 -38 -29 -45 -53 -4 -11
-10 -19 -14 -19 -5 0 -14 -13 -21 -30 -7 -16 -18 -30 -26 -30 -7 0 -16 -5 -20
-12 -5 -7 -2 -8 7 -3 8 5 11 4 6 -1 -5 -5 -12 -9 -15 -9 -4 0 -13 -4 -20 -8
-7 -5 -12 -5 -11 0 5 27 -1 33 -22 22 -16 -8 -20 -8 -14 1 5 7 1 11 -11 10
-11 -1 -21 -1 -24 0 -15 6 -118 19 -167 21 -24 1 -41 4 -39 8 3 4 -26 8 -62
10 -37 1 -69 6 -72 10 -3 5 -41 9 -84 10 -45 1 -87 7 -95 14 -12 10 -13 9 -6
-3 7 -12 6 -13 -6 -4 -8 6 -28 12 -46 12 -17 0 -41 5 -52 11 -14 8 -22 8 -27
-1 -5 -7 -3 -8 6 -3 9 6 11 4 5 -5 -6 -10 -11 -10 -20 4 -9 12 -24 15 -54 13
-22 -2 -41 1 -41 6 0 6 -3 7 -7 4 -3 -4 -13 -1 -21 6 -13 9 -14 9 -8 0 4 -8 1
-13 -9 -13 -9 0 -13 5 -10 10 9 14 -8 12 -24 -2 -11 -10 -13 -10 -7 0 7 11
-24 18 -63 13 -7 -2 -10 2 -7 7 7 11 -34 10 -53 -2 -9 -6 -12 -5 -8 1 6 9 -69
15 -195 15 -21 0 -36 3 -34 7 5 7 -10 9 -94 12 -27 1 -50 5 -50 10 0 13 -38
11 -46 -3z m1477 -281 c-10 -9 -11 -8 -5 6 3 10 9 15 12 12 3 -3 0 -11 -7 -18z
m87 -72 c-3 -3 -9 2 -12 12 -6 14 -5 15 5 6 7 -7 10 -15 7 -18z m-18 -15 c0
-5 -2 -10 -4 -10 -3 0 -8 5 -11 10 -3 6 -1 10 4 10 6 0 11 -4 11 -10z m40 -20
c0 -5 -2 -10 -4 -10 -3 0 -8 5 -11 10 -3 6 -1 10 4 10 6 0 11 -4 11 -10z"/>
<path d="M7613 3915 c0 -8 4 -12 9 -9 5 3 6 10 3 15 -9 13 -12 11 -12 -6z"/>
<path d="M7655 3900 c-3 -5 -1 -10 4 -10 6 0 11 5 11 10 0 6 -2 10 -4 10 -3 0
-8 -4 -11 -10z"/>
<path d="M6306 3858 c3 -5 10 -6 15 -3 13 9 11 12 -6 12 -8 0 -12 -4 -9 -9z"/>
<path d="M7776 3827 c3 -10 9 -15 12 -12 3 3 0 11 -7 18 -10 9 -11 8 -5 -6z"/>
<path d="M3684 3755 c-6 -13 -8 -14 -15 -3 -7 10 -9 11 -9 0 0 -7 -4 -10 -10
-7 -5 3 -10 1 -10 -6 0 -7 -4 -8 -12 -2 -11 8 -33 10 -40 3 -10 -7 -51 -13
-100 -14 -31 -1 -54 -4 -51 -8 4 -7 -7 -9 -74 -12 -12 -1 -25 -4 -29 -8 -4 -4
-13 -3 -21 3 -10 9 -13 8 -13 -1 0 -8 -3 -10 -7 -7 -3 4 -13 1 -21 -6 -9 -6
-13 -7 -9 -1 3 6 0 11 -8 11 -8 0 -12 -4 -10 -7 3 -4 -32 -8 -78 -9 -108 -2
-122 -5 -143 -22 -16 -12 -17 -12 -9 1 8 13 7 13 -8 1 -9 -7 -17 -10 -17 -5 0
5 -11 9 -25 9 -14 0 -25 -3 -25 -7 0 -4 -7 -4 -17 -1 -10 4 -14 2 -10 -4 4 -6
-28 -10 -91 -11 -62 -1 -96 -5 -95 -12 2 -5 -2 -10 -7 -10 -6 0 -10 6 -10 13
0 8 -3 9 -8 1 -4 -6 -15 -10 -24 -8 -10 1 -18 -2 -18 -7 0 -6 -7 -6 -18 0 -13
7 -23 6 -30 -1 -9 -9 -12 -9 -12 1 0 10 -3 11 -13 2 -8 -6 -17 -8 -20 -4 -4 3
-7 1 -7 -7 0 -10 -4 -10 -17 1 -11 10 -14 10 -9 2 4 -8 1 -13 -9 -13 -10 0
-13 -5 -9 -12 6 -10 4 -10 -8 0 -13 10 -17 10 -21 0 -4 -10 -7 -10 -18 1 -12
12 -12 13 0 6 9 -5 12 -4 7 3 -4 7 -13 12 -21 12 -8 0 -17 5 -21 12 -5 7 -3 8
6 3 9 -5 11 -4 6 3 -4 7 -14 12 -21 12 -9 0 -12 6 -8 17 4 10 2 14 -4 10 -5
-3 -17 12 -27 33 -21 48 -47 52 -82 15 -13 -14 -28 -25 -34 -25 -6 0 -9 -4 -6
-9 4 -5 -4 -7 -16 -4 -19 4 -20 3 -8 -6 13 -10 13 -11 0 -12 -8 -1 -18 -1 -22
0 -5 0 -8 -4 -8 -9 0 -6 -7 -10 -15 -10 -8 0 -15 -5 -15 -11 0 -8 -6 -7 -17 2
-15 13 -15 12 -4 -9 12 -23 12 -23 -11 -11 -22 12 -22 11 -8 -6 9 -11 10 -16
3 -11 -7 4 -13 2 -13 -3 0 -6 -6 -10 -12 -8 -7 1 -12 -4 -10 -12 3 -12 1 -12
-14 0 -10 8 -15 9 -11 3 4 -7 0 -17 -8 -24 -13 -11 -15 -10 -10 6 4 13 2 12
-6 -3 -7 -13 -21 -23 -33 -24 -12 0 -15 -3 -8 -6 9 -3 4 -10 -14 -19 -15 -8
-34 -12 -41 -9 -8 3 -11 0 -8 -6 4 -6 -2 -13 -14 -16 -12 -3 -21 -10 -21 -15
0 -6 -7 -8 -15 -4 -8 3 -14 0 -12 -7 1 -7 -5 -12 -13 -12 -8 0 -19 -6 -23 -12
-4 -7 -15 -13 -23 -13 -9 0 -12 -5 -8 -12 5 -8 2 -9 -9 -5 -12 4 -17 1 -17 -9
0 -10 -6 -14 -15 -10 -8 3 -14 2 -12 -2 1 -4 -2 -8 -7 -9 -5 0 -13 -8 -18 -17
-5 -9 -16 -16 -23 -16 -8 0 -15 -7 -15 -16 0 -13 -3 -14 -13 -5 -14 11 -27 5
-27 -13 0 -6 5 -4 11 4 9 13 10 13 6 0 -2 -8 -10 -14 -17 -12 -7 1 -18 -2 -26
-9 -7 -6 -19 -7 -25 -3 -7 4 -9 3 -6 -3 4 -6 -1 -17 -10 -24 -14 -12 -15 -12
-9 -1 7 11 4 12 -12 3 -11 -6 -22 -18 -26 -27 -4 -9 -12 -14 -22 -10 -8 3 -13
2 -10 -3 3 -5 -1 -14 -9 -21 -13 -11 -15 -10 -10 6 4 13 2 11 -6 -4 -7 -12
-19 -21 -28 -20 -9 2 -15 -3 -13 -10 1 -8 -2 -11 -8 -7 -5 3 -10 0 -10 -7 0
-10 -3 -9 -10 2 -8 12 -10 12 -16 -3 -3 -9 -13 -17 -21 -17 -8 0 -11 -5 -7
-12 5 -8 2 -9 -10 -5 -13 5 -17 3 -13 -7 4 -11 1 -13 -10 -9 -11 4 -14 2 -9
-5 4 -7 2 -12 -4 -12 -6 0 -9 -4 -6 -9 3 -5 -2 -8 -12 -7 -10 0 -16 -5 -14
-13 3 -12 0 -12 -12 -2 -13 11 -17 10 -22 -3 -3 -9 -10 -14 -14 -11 -4 3 -10
-5 -13 -17 -5 -19 -8 -20 -23 -7 -10 8 -15 10 -12 4 3 -5 0 -16 -8 -23 -11
-10 -14 -10 -14 0 -1 9 -5 7 -13 -4 -7 -9 -25 -20 -40 -23 -14 -4 -25 -10 -24
-14 1 -3 -2 -7 -7 -8 -5 -1 -12 -5 -15 -10 -3 -4 -36 -23 -73 -42 -38 -18 -68
-37 -68 -41 0 -4 -10 -10 -23 -14 -29 -7 -66 -38 -82 -70 -11 -21 -11 -27 6
-42 11 -9 17 -19 14 -22 -3 -3 0 -11 6 -19 6 -7 9 -13 6 -13 -3 0 5 -21 18
-47 13 -25 22 -50 19 -55 -3 -4 2 -8 10 -8 10 0 13 -7 11 -21 -3 -12 -2 -19 1
-16 3 3 19 1 35 -3 28 -8 51 3 27 13 -7 3 -3 6 10 6 13 1 21 5 17 10 -3 5 5
11 17 13 15 2 22 9 22 20 -1 10 2 16 6 13 5 -3 16 5 24 17 9 12 16 18 16 12 0
-5 -3 -14 -7 -20 -5 -5 -1 -2 7 6 8 9 23 19 33 23 10 4 16 11 13 15 -3 5 1 9
9 9 8 0 11 -5 8 -11 -4 -6 1 -5 10 3 9 7 14 18 10 25 -4 6 2 4 12 -4 11 -9 16
-10 11 -2 -4 7 -2 12 4 12 6 0 8 4 5 10 -3 6 1 7 9 4 11 -4 16 0 16 11 0 14 3
15 15 5 11 -9 15 -9 15 -1 0 7 5 9 10 6 6 -4 9 -1 8 7 -2 8 4 12 16 10 12 -2
16 1 10 9 -5 9 -2 10 9 6 9 -3 16 -3 14 1 -1 4 2 7 6 7 5 0 13 8 18 18 6 9 17
17 24 17 8 0 15 7 15 16 0 13 3 14 15 4 12 -10 16 -9 21 3 3 8 19 21 35 28 20
8 28 17 24 27 -5 12 -3 13 10 2 13 -11 16 -11 13 0 -2 8 6 16 17 18 11 2 29
14 40 25 11 12 29 29 40 37 19 14 19 14 5 -6 -8 -11 -3 -8 11 7 20 20 30 24
39 16 8 -9 9 -7 4 7 -6 16 -4 18 10 13 11 -5 15 -3 10 5 -5 7 -2 9 9 5 9 -3
18 1 21 10 4 8 12 13 19 10 8 -3 20 -1 28 5 11 8 11 9 -3 4 -12 -3 -15 -1 -12
9 3 8 9 14 12 13 16 -3 41 15 35 26 -4 6 2 4 12 -4 11 -9 16 -10 11 -2 -4 7
-1 15 8 18 9 3 13 10 10 16 -3 5 2 8 12 6 13 -2 18 2 16 12 -2 8 0 12 4 8 4
-4 20 2 37 14 17 12 27 16 23 9 -7 -10 -4 -11 13 -1 12 6 19 15 16 20 -3 4 5
6 17 2 14 -3 19 -2 14 6 -7 11 7 16 41 15 7 0 11 4 10 11 -1 6 6 10 17 8 14
-3 17 1 12 14 -6 15 -4 15 10 3 16 -13 16 -12 6 8 -10 19 -9 20 10 15 17 -4
20 -2 15 11 -4 11 -1 15 14 12 10 -2 19 2 19 8 0 7 4 6 10 -3 9 -13 10 -13 10
0 0 17 54 21 78 6 8 -4 16 -6 18 -3 3 3 18 1 34 -3 16 -4 31 -6 34 -3 9 9 86
9 86 -1 0 -4 8 -5 18 -1 26 10 102 11 105 1 2 -5 12 -4 23 2 21 11 54 -1 54
-19 0 -6 -6 -7 -12 -3 -8 5 -8 1 2 -12 8 -10 11 -16 6 -12 -4 3 -16 -2 -27
-13 -10 -10 -28 -19 -39 -19 -11 0 -20 -4 -20 -10 0 -5 -8 -6 -17 -3 -13 5
-15 3 -9 -12 4 -11 4 -16 0 -13 -3 4 -23 -5 -43 -20 -28 -21 -33 -22 -22 -7 7
11 2 8 -12 -7 -19 -20 -27 -24 -36 -15 -9 9 -10 7 -5 -7 6 -15 4 -18 -9 -13
-9 3 -16 3 -14 -1 1 -4 -1 -7 -5 -7 -4 0 -15 -10 -23 -22 -9 -13 -25 -23 -36
-23 -13 0 -18 -4 -13 -12 4 -7 3 -8 -4 -4 -6 4 -20 -2 -32 -14 -11 -11 -27
-20 -36 -20 -10 0 -14 -6 -10 -15 3 -8 2 -14 -2 -14 -21 3 -32 -2 -26 -13 6
-10 4 -10 -7 0 -13 12 -38 18 -26 5 4 -3 2 -12 -4 -20 -10 -11 -15 -11 -27 -1
-9 7 -13 9 -10 3 5 -9 -19 -40 -32 -40 -3 0 -4 -3 -3 -7 2 -4 -5 -4 -14 -1 -9
4 -14 2 -10 -3 3 -6 -3 -16 -15 -23 -16 -10 -19 -10 -13 1 3 7 0 5 -8 -4 -8
-10 -17 -15 -20 -11 -4 3 -9 -2 -13 -11 -5 -13 -9 -14 -20 -5 -12 10 -13 9 -8
-5 4 -11 2 -16 -7 -14 -8 2 -13 -3 -11 -10 1 -6 -1 -11 -5 -11 -27 4 -45 -3
-40 -15 4 -10 1 -13 -9 -9 -10 4 -17 -2 -21 -16 -3 -11 -9 -18 -14 -15 -5 3
-7 11 -3 17 3 7 -3 2 -14 -10 -11 -13 -25 -23 -31 -23 -6 0 -11 -5 -11 -11 0
-6 -7 -9 -14 -6 -9 4 -13 1 -10 -6 2 -7 -5 -18 -17 -25 -12 -8 -18 -9 -14 -3
3 6 1 11 -5 11 -6 0 -13 -7 -16 -15 -4 -8 -10 -15 -15 -15 -5 0 -23 -9 -41
-21 -18 -12 -25 -18 -15 -15 11 3 16 2 12 -4 -3 -6 -13 -10 -21 -10 -8 0 -14
-6 -14 -12 0 -9 -3 -8 -10 2 -8 12 -10 12 -16 -3 -3 -9 -11 -14 -17 -10 -7 4
-8 0 -3 -12 6 -16 4 -16 -11 -4 -11 9 -14 10 -9 2 4 -8 2 -13 -5 -13 -6 0 -18
-8 -26 -17 -8 -10 -12 -12 -8 -6 10 21 -24 3 -36 -18 -5 -11 -14 -17 -20 -14
-5 4 -9 1 -9 -4 0 -6 -6 -10 -12 -9 -7 2 -12 -2 -11 -8 1 -6 -9 -10 -23 -8
-13 1 -22 -2 -18 -7 3 -5 -2 -9 -11 -9 -9 0 -14 -4 -10 -9 3 -5 0 -13 -6 -17
-8 -4 -9 -3 -5 4 4 7 2 12 -4 12 -6 0 -13 -7 -16 -15 -4 -8 -13 -15 -21 -15
-8 0 -11 -5 -7 -12 4 -6 3 -8 -4 -5 -14 9 -43 -3 -36 -14 3 -5 -2 -9 -11 -9
-9 0 -13 -4 -10 -10 3 -5 1 -10 -4 -10 -6 0 -11 6 -11 13 0 6 -5 4 -11 -5 -5
-10 -14 -18 -19 -18 -5 0 -29 -13 -53 -30 -44 -30 -68 -70 -42 -70 8 0 17 -9
20 -20 3 -11 11 -20 16 -20 6 0 7 -4 4 -10 -3 -5 -1 -10 5 -10 6 0 8 -4 5 -10
-3 -5 -3 -10 2 -10 7 0 33 -48 36 -67 0 -4 11 -19 23 -32 13 -14 20 -29 17
-34 -3 -6 -2 -8 3 -5 9 5 46 -27 39 -34 -2 -1 7 -3 20 -3 13 0 21 3 18 8 -2 4
1 7 7 7 6 0 8 5 4 13 -5 7 -2 7 10 -2 9 -8 16 -10 14 -5 -2 5 2 10 7 12 6 2
16 13 23 25 12 20 13 20 8 2 -5 -16 -1 -14 17 8 18 22 25 25 36 15 10 -11 12
-10 9 2 -2 9 6 16 20 18 16 2 22 8 18 18 -4 10 -2 12 6 8 8 -5 9 -1 4 12 -5
15 -4 16 5 7 13 -13 42 -6 33 8 -4 8 17 14 39 10 4 0 6 5 5 11 -2 7 5 12 15
10 9 -2 17 1 17 6 0 5 14 15 31 22 20 9 28 18 24 28 -5 12 -3 13 10 2 13 -11
16 -11 13 0 -2 8 6 16 17 18 11 2 25 9 30 16 6 7 24 19 40 27 17 9 29 21 27
28 -1 7 2 10 8 6 5 -3 10 -1 10 4 0 6 5 11 11 11 5 0 7 -6 3 -12 -4 -7 5 -2
18 12 14 14 24 28 22 31 -2 3 3 6 11 6 8 0 11 -5 8 -11 -4 -6 3 -3 14 7 11 9
23 14 28 10 4 -5 5 -2 1 5 -4 6 -2 12 4 12 6 0 8 5 4 12 -4 6 -3 8 4 5 5 -4
18 -4 27 -1 13 6 14 9 3 16 -9 7 -7 8 9 5 13 -3 24 1 27 9 3 8 12 14 21 14 8
0 14 5 13 11 -2 6 3 14 11 17 8 3 11 0 7 -7 -5 -7 -1 -9 8 -5 9 3 13 10 10 15
-3 5 0 9 6 9 6 0 9 4 6 9 -4 5 2 7 13 4 10 -3 22 0 25 6 4 5 12 9 19 7 7 -1 8
-1 4 2 -15 8 24 41 41 35 10 -4 13 -2 8 5 -5 8 -1 10 10 5 13 -5 16 -2 12 9
-4 8 0 15 8 16 8 1 21 3 29 4 8 1 12 5 9 10 -3 4 2 8 11 8 9 0 14 4 11 9 -3 5
1 12 10 15 8 3 12 2 9 -4 -3 -6 1 -7 9 -4 9 3 16 9 16 13 0 3 17 6 38 7 20 0
60 4 87 8 28 4 64 9 81 11 18 2 68 9 113 15 55 7 87 8 99 1 9 -6 11 -11 5 -11
-7 0 -12 -6 -10 -12 1 -8 -7 -13 -20 -12 -16 0 -20 -3 -13 -11 14 -17 0 -27
-19 -13 -9 7 -13 9 -9 4 10 -12 -15 -34 -31 -28 -10 4 -12 1 -6 -8 6 -10 4
-12 -8 -7 -9 3 -16 3 -14 -1 1 -4 -2 -8 -6 -9 -5 -1 -14 -9 -21 -19 -7 -9 -18
-14 -24 -10 -7 4 -12 2 -12 -4 0 -6 -4 -8 -10 -5 -5 3 -10 2 -10 -4 0 -5 -9
-13 -20 -16 -11 -3 -20 -13 -20 -21 0 -8 -5 -14 -11 -14 -5 0 -7 6 -4 13 4 6
-2 2 -13 -10 -11 -12 -23 -19 -27 -15 -5 4 -5 -2 -1 -12 5 -16 4 -17 -9 -6
-14 12 -20 7 -16 -14 1 -5 -4 -4 -13 3 -11 9 -16 9 -22 0 -4 -8 -3 -9 4 -5 7
4 12 5 12 1 0 -3 -12 -10 -26 -15 -14 -6 -23 -14 -20 -19 4 -5 -4 -7 -16 -4
-17 4 -20 2 -9 -5 11 -8 9 -11 -10 -14 -14 -2 -23 -9 -21 -17 3 -12 0 -12 -14
0 -12 9 -15 9 -10 2 4 -8 2 -13 -4 -13 -6 0 -8 -5 -4 -12 5 -8 0 -7 -11 2 -10
8 -16 10 -12 3 4 -7 -1 -14 -13 -18 -11 -4 -18 -11 -15 -16 3 -5 0 -6 -8 -3
-9 3 -22 -4 -31 -18 -9 -12 -16 -17 -16 -10 0 7 -5 10 -10 7 -6 -4 -7 -11 -4
-17 4 -6 1 -9 -7 -6 -8 3 -22 -6 -32 -19 -10 -12 -21 -22 -25 -22 -27 4 -44
-3 -39 -15 4 -10 1 -13 -8 -9 -8 3 -18 -2 -21 -11 -3 -9 -10 -16 -16 -16 -5 0
-6 6 -3 13 4 6 -2 2 -13 -10 -11 -13 -25 -23 -31 -23 -6 0 -11 -5 -11 -11 0
-6 -7 -9 -14 -6 -11 4 -13 1 -9 -10 5 -12 2 -15 -10 -10 -10 4 -16 2 -14 -6 1
-7 -6 -11 -17 -9 -12 2 -16 -1 -10 -9 5 -9 2 -10 -9 -6 -9 3 -16 3 -14 -1 1
-4 -2 -8 -7 -9 -5 0 -13 -8 -18 -17 -5 -9 -16 -16 -23 -16 -8 0 -15 -7 -15
-16 0 -14 -3 -14 -15 -4 -12 10 -15 10 -15 0 0 -7 -8 -10 -20 -7 -11 3 -23 0
-27 -5 -3 -6 -2 -8 3 -5 6 3 16 2 24 -4 13 -7 12 -9 -2 -9 -29 0 -32 -2 -46
-21 -7 -10 -21 -16 -32 -14 -11 2 -23 -1 -26 -7 -4 -7 -2 -8 4 -4 25 15 10 -3
-15 -20 -27 -17 -28 -17 -13 2 14 19 14 19 -7 0 -13 -10 -20 -22 -18 -26 3 -5
-5 -6 -17 -2 -17 4 -20 2 -15 -12 5 -11 3 -15 -5 -10 -8 5 -9 2 -4 -11 5 -15
4 -16 -9 -5 -8 7 -15 8 -15 3 0 -5 -9 -9 -19 -10 -47 -4 -97 -83 -53 -83 10 0
35 -19 57 -41 37 -39 38 -42 20 -55 -10 -8 -14 -14 -8 -14 7 0 15 5 19 11 7
12 61 -39 56 -54 -1 -5 1 -6 6 -3 5 3 18 -8 30 -24 34 -46 92 -86 102 -71 4 8
13 10 20 6 8 -5 11 -4 6 3 -3 6 3 13 13 17 11 3 23 14 26 25 3 10 13 21 22 25
15 5 15 4 2 -13 -8 -10 -1 -5 14 11 18 18 34 26 44 23 13 -5 13 -4 4 8 -9 11
-8 15 6 21 10 5 22 7 27 6 4 -1 15 6 23 16 8 10 12 12 8 6 -4 -9 -1 -11 9 -7
9 3 13 10 10 15 -3 5 3 6 12 2 13 -5 16 -3 11 10 -4 11 -2 14 9 10 9 -3 14 1
14 12 0 15 2 16 17 4 10 -8 14 -9 10 -2 -4 6 -3 14 3 18 5 3 10 0 10 -7 0 -10
3 -9 9 2 6 8 8 17 5 21 -2 4 7 6 21 5 13 -2 22 1 19 5 -3 5 0 9 5 9 6 0 10 6
9 13 -2 7 5 11 16 9 12 -2 16 1 10 9 -4 8 -3 10 5 5 11 -7 38 12 37 26 -1 3 3
10 8 15 5 5 6 3 2 -4 -4 -7 -3 -13 2 -13 6 0 12 7 16 15 3 8 12 15 21 15 8 0
15 7 15 16 0 14 2 15 17 3 10 -8 14 -9 10 -2 -4 6 -3 14 3 18 5 3 10 0 10 -7
0 -7 7 -2 16 10 9 13 22 21 30 18 8 -3 14 -1 14 5 0 6 4 7 10 4 6 -4 7 1 3 11
-4 12 -3 15 5 10 7 -4 12 -2 12 3 0 6 5 11 11 11 5 0 7 -6 3 -12 -4 -8 -3 -10
2 -5 5 5 9 14 9 20 1 7 6 11 13 9 7 -1 12 2 12 8 0 5 6 10 13 10 7 0 18 9 25
20 7 12 17 18 23 15 5 -4 16 -1 24 5 8 6 20 8 26 4 7 -4 9 -3 5 4 -8 14 30 36
46 26 6 -4 8 -3 5 3 -4 6 4 18 16 26 22 14 27 13 91 -35 l68 -49 -21 -20 c-12
-11 -19 -24 -16 -29 4 -6 -2 -7 -11 -3 -13 5 -15 3 -9 -7 5 -8 4 -11 -2 -7 -5
3 -26 -5 -46 -18 -20 -14 -41 -25 -48 -25 -6 0 -8 -7 -5 -16 3 -8 2 -12 -4 -9
-6 3 -10 0 -10 -7 0 -9 -3 -9 -10 2 -8 13 -10 13 -10 -2 0 -11 -5 -15 -15 -12
-8 4 -15 1 -15 -5 0 -6 -7 -11 -16 -11 -8 0 -12 -5 -9 -10 3 -5 -3 -10 -13
-10 -11 0 -23 -7 -26 -16 -3 -8 -10 -12 -16 -9 -5 3 -10 1 -10 -4 0 -6 -7 -11
-15 -11 -8 0 -15 -4 -15 -8 0 -5 -16 -14 -35 -22 -19 -8 -35 -17 -35 -22 0 -4
-7 -8 -16 -8 -10 0 -14 -5 -10 -16 3 -9 2 -12 -5 -9 -6 4 -17 -1 -25 -11 -9
-11 -13 -13 -9 -6 3 6 1 12 -4 12 -6 0 -11 -5 -11 -11 0 -5 -13 -15 -30 -20
-16 -6 -28 -15 -25 -19 3 -5 -5 -12 -17 -16 -13 -4 -29 -14 -36 -23 -10 -12
-12 -12 -6 -1 7 13 5 13 -9 1 -9 -7 -17 -21 -17 -30 0 -14 -2 -14 -10 -1 -5 8
-10 10 -10 4 0 -7 -11 -15 -25 -18 -14 -4 -25 -13 -25 -21 0 -8 -6 -12 -14 -9
-8 3 -17 0 -22 -7 -5 -8 -3 -10 6 -4 9 5 11 4 6 -4 -4 -6 -11 -9 -16 -6 -4 2
-24 -6 -44 -20 -20 -14 -40 -25 -43 -25 -20 0 -91 -57 -90 -72 1 -10 5 -18 10
-18 6 0 20 -10 33 -22 35 -34 63 -58 72 -60 4 -2 6 -7 4 -11 -1 -5 1 -6 6 -3
11 6 98 -63 94 -76 -1 -5 2 -7 7 -4 9 6 74 -43 92 -68 11 -14 99 -20 99 -6 0
7 7 10 15 6 8 -3 14 -2 12 2 -1 4 2 8 6 9 5 1 14 9 21 19 9 12 15 14 20 6 4
-7 13 -12 19 -12 8 0 7 3 -2 9 -17 11 -4 34 16 27 8 -3 12 -2 9 3 -3 4 6 14
19 21 14 7 25 17 25 22 0 4 6 8 13 8 7 0 20 9 30 20 9 11 24 20 32 20 8 0 15
5 15 11 0 5 5 7 10 4 6 -3 10 -1 10 4 0 6 5 11 11 11 7 0 18 8 26 18 10 11 12
12 8 2 -6 -13 -5 -13 7 0 7 8 25 21 41 29 15 8 27 18 27 23 0 4 6 8 14 8 7 0
25 11 39 24 14 13 28 22 30 20 2 -3 10 2 17 11 7 8 18 15 24 15 6 0 25 13 42
28 17 15 37 26 44 24 7 -3 10 0 6 7 -4 6 0 11 9 11 9 0 14 4 11 9 -4 5 4 7 16
3 14 -3 19 -2 14 6 -4 7 -1 12 8 12 8 0 22 7 30 16 9 8 16 13 16 9 0 -4 7 1
16 9 8 9 20 13 26 10 7 -4 8 -2 4 4 -4 7 -1 12 8 12 9 0 16 5 16 11 0 5 5 7
10 4 6 -3 10 -1 10 5 0 6 3 9 8 7 9 -6 33 18 26 27 -2 3 -1 4 2 2 3 -3 17 -1
30 4 20 8 31 3 71 -32 46 -39 80 -80 53 -63 -9 5 -10 2 -5 -14 5 -16 3 -20 -9
-15 -11 4 -16 1 -16 -10 0 -9 -7 -16 -16 -16 -9 0 -12 -5 -8 -12 5 -8 2 -9 -9
-5 -10 4 -16 2 -14 -6 1 -7 -5 -11 -14 -9 -9 1 -23 -6 -30 -15 -13 -17 -13
-17 6 -3 18 14 19 14 7 -2 -8 -9 -20 -14 -28 -11 -8 3 -14 0 -14 -6 0 -6 -6
-10 -12 -9 -7 2 -12 -2 -11 -8 1 -7 -6 -10 -20 -7 -17 4 -19 2 -8 -5 11 -8 9
-11 -10 -14 -14 -2 -23 -9 -21 -17 3 -12 0 -12 -14 0 -12 9 -15 9 -10 2 4 -8
2 -13 -4 -13 -6 0 -8 -5 -4 -12 5 -8 0 -7 -11 2 -11 9 -16 10 -11 3 4 -8 2
-13 -4 -13 -6 0 -8 -5 -4 -12 5 -8 0 -7 -11 2 -11 9 -16 10 -11 3 4 -8 2 -13
-4 -13 -6 0 -8 -4 -5 -10 3 -6 -1 -7 -9 -4 -11 4 -16 0 -16 -11 0 -15 -3 -15
-16 -5 -13 11 -16 10 -21 -9 -4 -17 -8 -19 -19 -10 -8 7 -17 9 -21 5 -3 -3 -1
-6 6 -6 7 0 9 -5 6 -10 -4 -6 -11 -8 -16 -5 -5 4 -12 -1 -15 -10 -4 -10 -14
-15 -25 -12 -11 3 -17 1 -13 -4 3 -5 0 -9 -7 -9 -7 0 -9 -3 -5 -7 3 -4 -6 -12
-21 -18 l-28 -11 65 -33 c36 -18 72 -39 80 -46 8 -7 27 -17 43 -20 15 -4 27
-11 27 -16 0 -5 7 -5 17 -2 9 4 14 2 11 -3 -4 -5 6 -9 20 -10 15 -1 61 -9 102
-19 78 -18 249 -26 288 -13 15 5 22 4 22 -5 0 -8 3 -7 9 2 5 8 18 16 28 18 45
9 59 12 80 18 12 4 25 6 29 5 4 -1 10 4 14 10 4 7 19 12 34 12 14 0 23 4 20 9
-3 5 1 9 9 9 8 0 27 11 43 25 27 23 33 26 50 24 3 0 12 8 21 18 8 10 11 11 7
3 -4 -8 3 -5 15 8 12 12 26 20 31 17 5 -3 12 0 16 6 5 8 3 9 -6 4 -9 -5 -11
-4 -6 4 4 6 15 10 24 9 9 -2 17 2 17 7 0 6 10 21 22 34 27 29 56 87 61 121 2
14 7 27 13 28 5 2 7 7 4 12 -7 11 31 23 45 15 5 -3 10 -2 10 4 0 6 7 8 15 5 8
-4 15 -1 15 6 0 6 5 8 10 5 6 -3 10 -1 10 5 0 7 7 10 15 6 10 -3 15 1 15 12 0
15 2 15 10 2 8 -13 10 -13 10 2 0 9 5 20 12 24 8 5 9 2 5 -10 -4 -10 -3 -15 3
-11 6 3 10 15 10 26 0 11 6 22 14 25 9 3 12 12 9 21 -4 11 -2 14 5 9 7 -4 12
-1 12 9 0 9 4 14 8 11 4 -2 9 7 10 20 1 14 6 33 11 42 11 22 12 152 0 152 -4
0 -6 7 -3 15 4 9 1 15 -7 15 -10 0 -10 3 -2 11 8 8 8 20 3 35 -5 13 -6 25 -2
28 4 2 6 25 4 51 -3 32 -8 45 -17 41 -7 -2 -18 1 -24 7 -7 7 -11 8 -11 0 0 -5
-10 -10 -22 -9 -13 1 -34 -4 -47 -11 -15 -7 -32 -8 -47 -3 -15 6 -26 5 -30 -1
-4 -7 -10 -6 -19 1 -10 8 -15 8 -20 0 -5 -8 -11 -8 -21 1 -11 9 -14 9 -14 -1
0 -9 -3 -10 -13 -1 -11 8 -18 6 -32 -9 -12 -14 -22 -17 -34 -10 -10 5 -23 5
-31 0 -9 -6 -17 -5 -21 2 -4 6 -12 7 -18 4 -6 -4 -9 -11 -7 -15 3 -4 -10 -6
-27 -6 -18 1 -42 -2 -54 -6 -16 -6 -25 -4 -32 9 -7 11 -10 12 -11 4 0 -15 -66
68 -80 101 -5 12 -26 45 -46 72 -20 28 -27 39 -15 26 12 -13 21 -20 21 -16 0
4 6 2 14 -4 11 -9 15 -8 20 4 4 10 11 13 18 8 18 -11 31 -11 45 -1 6 5 13 5
16 1 6 -10 84 -9 94 0 3 4 12 2 19 -4 8 -7 14 -7 19 1 5 8 10 8 20 0 10 -8 15
-8 20 0 5 8 11 8 21 -1 9 -7 14 -8 14 -1 0 6 11 9 25 8 14 -2 22 1 18 7 -3 6
6 8 26 5 17 -3 31 0 31 6 0 6 4 6 11 -1 7 -7 21 -8 41 -2 17 4 35 6 39 3 5 -3
9 -1 9 5 0 5 9 8 20 6 11 -2 20 0 20 4 0 4 7 8 15 8 8 0 15 -4 15 -9 0 -5 4
-6 10 -3 5 3 9 21 7 40 -1 18 -5 31 -8 29 -4 -2 -7 20 -8 48 0 28 -6 55 -12
59 -8 5 -7 8 2 12 10 4 10 6 2 6 -8 1 -13 16 -13 41 0 25 -5 40 -12 40 -10 0
-9 3 1 9 9 6 10 10 2 12 -6 2 -12 21 -13 42 -1 20 -5 37 -10 37 -4 0 -8 11 -8
24 0 13 -7 26 -15 30 -8 3 -15 0 -15 -6 0 -9 -3 -9 -11 -1 -8 8 -20 8 -35 3
-13 -5 -24 -6 -24 -1 0 7 -24 8 -55 1 -5 -1 -12 -1 -15 0 -20 8 -63 3 -67 -7
-3 -7 -9 -13 -15 -13 -5 0 -7 4 -3 9 3 5 1 13 -5 16 -6 4 -9 1 -8 -7 2 -7 -4
-13 -12 -13 -8 0 -21 -4 -27 -8 -8 -5 -13 -4 -13 3 0 6 -12 4 -31 -5 -17 -9
-37 -14 -44 -11 -7 2 -16 2 -20 -2 -9 -10 -39 -9 -46 2 -4 4 -16 3 -27 -3 -15
-8 -23 -8 -27 0 -5 6 -12 4 -22 -8 -8 -10 -12 -12 -8 -5 3 6 1 12 -4 12 -6 0
-11 -4 -11 -9 0 -5 -8 -8 -17 -6 -10 1 -23 -2 -30 -7 -7 -5 -13 -5 -17 0 -3 6
-23 6 -48 1 -58 -11 -60 -11 -52 3 4 7 3 8 -5 4 -6 -4 -9 -11 -6 -16 3 -4 -2
-11 -11 -14 -8 -3 -12 -2 -9 3 3 5 -9 3 -26 -6 -24 -12 -33 -13 -39 -3 -4 6
-10 11 -14 11 -3 -1 -6 2 -5 6 0 3 -6 10 -15 15 -9 5 -14 13 -11 19 4 5 1 9
-5 9 -6 0 -8 5 -5 10 4 6 3 9 -2 8 -11 -4 -63 47 -63 61 0 5 -5 11 -12 13 -6
2 -9 12 -5 21 5 13 15 17 42 14 21 -3 35 0 35 7 0 6 5 4 10 -4 8 -12 10 -12
10 -1 0 8 7 11 20 8 12 -3 18 -1 14 5 -4 6 -1 8 7 6 8 -3 24 -1 37 3 12 5 22
5 22 0 0 -4 12 -6 28 -4 15 2 39 4 55 4 15 -1 27 4 27 9 0 6 5 8 10 5 6 -3 10
0 10 7 0 8 3 9 8 3 8 -12 72 -13 90 -2 6 5 12 4 12 -1 0 -5 7 -9 15 -9 8 0 12
4 9 9 -3 4 6 8 20 8 14 0 27 4 31 10 3 6 15 6 30 0 16 -6 25 -5 29 3 3 9 5 8
5 -1 1 -7 5 -11 9 -8 5 3 27 6 50 7 23 2 42 8 42 13 0 6 5 4 10 -4 7 -11 10
-11 10 -2 0 8 10 11 28 9 15 -2 39 0 55 4 16 4 27 4 27 -2 0 -6 7 -6 18 0 13
7 23 6 31 -2 10 -9 11 -8 5 6 -3 10 -3 17 2 16 29 -5 34 4 34 56 0 37 -4 55
-12 55 -9 0 -8 4 2 10 10 6 11 10 3 10 -8 0 -13 13 -13 33 0 18 -6 39 -12 46
-10 11 -10 13 0 7 6 -4 12 -2 12 3 0 6 -4 11 -10 11 -6 0 -10 28 -10 64 0 60
-2 64 -25 68 -13 3 -26 0 -29 -6 -3 -7 -5 -7 -5 1 -1 8 -10 9 -31 3 -16 -5
-30 -5 -30 -1 0 9 -55 5 -70 -4 -5 -3 -10 0 -12 6 -3 8 -9 6 -20 -4 -11 -12
-30 -15 -64 -13 -27 1 -55 -2 -61 -7 -7 -5 -22 -7 -33 -4 -12 3 -18 1 -14 -5
3 -5 -2 -9 -12 -8 -11 1 -21 1 -24 0 -3 -1 -31 -2 -62 -2 -32 -1 -58 -5 -58
-9 0 -4 -8 -6 -17 -4 -10 1 -23 -2 -30 -7 -7 -6 -14 -5 -18 2 -5 8 -11 8 -21
-1 -11 -9 -14 -9 -14 1 0 10 -3 10 -14 1 -10 -9 -16 -9 -21 -1 -5 8 -13 6 -25
-5 -11 -10 -25 -15 -32 -12 -7 2 -23 0 -35 -4 -13 -5 -23 -5 -23 0 0 4 -10 7
-22 5 -13 -1 -23 -3 -23 -4 0 -2 -11 -4 -25 -5 -14 -1 -36 -7 -50 -12 -14 -6
-29 -8 -35 -4 -14 9 -37 7 -54 -3 -10 -7 -12 -5 -7 5 4 8 0 5 -8 -5 -12 -15
-16 -16 -16 -5 -1 11 -4 10 -14 -3 -7 -10 -16 -15 -19 -11 -4 3 -7 2 -7 -4 0
-5 -7 -10 -15 -10 -8 0 -12 4 -9 9 3 4 -4 8 -16 8 -12 0 -18 5 -15 10 4 6 11
7 17 4 7 -4 8 -2 4 4 -4 6 -14 8 -23 5 -11 -4 -14 -3 -9 5 4 7 4 12 -1 12 -9
0 -39 61 -35 72 1 5 -1 7 -6 5 -4 -1 -8 2 -9 7 -1 5 -6 12 -12 16 -6 3 -13 15
-15 26 -3 10 -7 27 -11 36 -5 13 -1 16 19 14 14 -2 26 1 26 7 0 5 6 4 14 -2
10 -8 16 -9 21 -1 4 7 12 7 26 0 15 -9 21 -7 25 5 3 8 10 15 16 15 5 0 6 -6 2
-12 -4 -7 3 -4 15 7 17 14 24 16 30 7 6 -10 15 -10 34 -3 15 6 27 7 27 2 0 -9
37 -8 46 2 4 4 14 1 22 -6 13 -9 14 -9 8 1 -6 11 5 17 27 13 4 0 7 4 7 11 0 9
3 9 11 1 7 -7 22 -8 46 -1 19 5 41 7 49 4 7 -3 13 -2 13 2 -3 18 3 21 26 12
15 -6 26 -6 30 1 4 5 12 6 18 2 16 -10 69 -4 86 10 12 9 13 9 7 0 -4 -7 -2
-13 3 -13 6 0 11 4 11 10 0 5 14 8 30 6 17 -2 33 0 36 5 2 4 16 4 30 -1 17 -7
23 -7 19 1 -4 6 0 9 11 7 11 -2 18 2 17 7 -1 6 17 9 44 6 31 -2 48 1 54 10 7
11 9 11 9 1 0 -9 6 -8 24 3 13 9 27 12 30 7 6 -11 36 -9 55 3 10 6 12 4 7 -6
-4 -8 0 -5 8 5 9 11 16 15 16 10 0 -6 6 -11 14 -11 8 0 12 6 8 15 -4 11 -1 13
12 5 9 -5 32 -7 51 -5 34 4 35 5 35 49 0 33 -3 42 -12 37 -9 -5 -9 -2 1 9 8
10 9 17 3 17 -7 0 -10 36 -9 104 l2 104 -43 -2 c-23 0 -43 3 -45 8 -2 5 -12 4
-23 -2 -13 -7 -25 -7 -37 -1 -13 8 -19 6 -23 -6z m-444 -625 c0 -5 -5 -10 -11
-10 -5 0 -7 5 -4 10 3 6 8 10 11 10 2 0 4 -4 4 -10z m-1750 -274 c0 -2 -7 -7
-16 -10 -8 -3 -12 -2 -9 4 6 10 25 14 25 6z m160 -640 c0 -2 -7 -7 -16 -10 -8
-3 -12 -2 -9 4 6 10 25 14 25 6z m2230 -206 c0 -5 -5 -10 -11 -10 -5 0 -7 5
-4 10 3 6 8 10 11 10 2 0 4 -4 4 -10z"/>
<path d="M6162 3722 c-29 -2 -45 -9 -50 -20 -3 -9 -16 -32 -29 -51 -12 -18
-20 -38 -16 -44 3 -5 1 -7 -5 -3 -5 3 -12 1 -14 -4 -2 -6 -16 -13 -32 -16 -16
-3 -33 -7 -38 -10 -4 -3 -8 0 -8 6 0 6 -4 8 -10 5 -5 -3 -19 -1 -31 6 -12 6
-19 7 -16 2 4 -5 0 -10 -8 -10 -8 0 -14 3 -13 6 2 18 -4 21 -21 11 -14 -7 -20
-7 -23 2 -3 8 -9 8 -24 0 -11 -6 -25 -7 -32 -3 -6 4 -27 6 -47 6 -19 -1 -35 1
-35 5 0 4 -6 7 -12 8 -7 0 -25 3 -40 5 -16 2 -28 0 -28 -6 0 -6 -4 -6 -12 0
-7 6 -21 9 -30 8 -10 -2 -18 1 -18 6 0 5 -40 9 -88 9 -57 0 -93 4 -101 13 -11
9 -12 9 -7 0 5 -9 2 -11 -8 -7 -9 3 -16 9 -16 13 0 3 -13 6 -30 6 -16 0 -30
-3 -30 -7 0 -10 -33 3 -42 16 -6 7 -11 6 -18 -4 -5 -8 -10 -10 -10 -4 0 15
-41 23 -68 13 -12 -5 -22 -5 -22 -1 0 4 -29 7 -65 7 -36 1 -70 6 -76 12 -8 8
-20 8 -35 3 -13 -5 -25 -6 -28 -2 -5 9 -53 8 -62 0 -10 -10 -44 4 -37 16 3 6
0 6 -8 -1 -7 -7 -26 -13 -41 -13 -25 0 -28 -4 -28 -31 0 -18 -4 -28 -10 -24
-6 4 -10 3 -9 -2 5 -29 -2 -163 -9 -159 -4 2 -9 -11 -10 -31 -2 -28 0 -34 12
-30 9 4 17 3 20 -1 2 -4 24 -7 48 -6 23 1 46 -4 50 -10 5 -7 8 -7 8 2 0 7 5
10 10 7 6 -4 8 -11 5 -16 -4 -5 4 -5 19 1 14 5 26 6 26 2 0 -4 12 -7 28 -6 15
0 41 -3 57 -8 42 -13 85 -16 85 -6 0 5 9 4 21 -2 15 -9 24 -8 35 1 11 9 14 9
14 -1 0 -8 3 -11 6 -8 3 4 21 0 39 -8 22 -9 36 -10 40 -4 4 6 11 8 16 4 16 -9
79 -13 74 -4 -3 5 8 5 25 0 21 -6 30 -5 30 3 0 8 3 7 9 -1 5 -8 30 -16 57 -18
27 -2 58 -5 69 -8 11 -2 26 2 34 8 11 8 15 8 18 -1 4 -10 10 -10 25 -2 16 9
19 8 13 -2 -6 -9 -3 -11 8 -6 12 4 17 1 17 -11 0 -15 2 -15 11 -2 8 11 12 12
15 3 4 -8 13 -9 29 -3 15 6 25 5 27 -1 2 -6 15 -6 36 0 18 5 31 7 28 3 -2 -4
2 -12 9 -19 11 -10 15 -10 19 0 5 9 7 9 12 0 3 -8 13 -9 27 -4 12 5 31 5 42 1
11 -4 26 -3 33 2 8 7 12 7 12 -1 0 -8 8 -10 19 -6 14 4 21 0 24 -12 4 -17 5
-17 6 1 1 15 4 16 16 6 18 -15 83 -19 89 -5 3 5 5 4 5 -3 1 -7 5 -11 10 -8 5
4 21 2 36 -4 17 -7 24 -7 20 0 -3 6 -1 10 4 10 6 0 11 -7 11 -15 0 -13 4 -14
20 -5 11 6 20 7 20 3 0 -5 19 -7 43 -5 71 6 123 -1 120 -15 -1 -5 12 -8 28 -7
16 1 26 -2 23 -7 -3 -5 4 -9 15 -9 11 0 23 -4 26 -10 3 -5 15 -10 26 -10 10 0
19 -4 19 -10 0 -5 7 -10 15 -10 9 0 18 -7 22 -16 3 -8 12 -13 19 -10 8 3 14 1
14 -4 0 -6 7 -10 15 -10 8 0 15 -4 15 -10 0 -5 7 -10 16 -10 8 0 12 -4 9 -10
-3 -5 3 -10 14 -10 12 0 21 -4 21 -10 0 -5 11 -12 25 -16 14 -3 25 -10 25 -15
0 -5 7 -5 17 -2 11 4 14 3 9 -5 -5 -8 0 -12 14 -12 12 0 18 -4 15 -10 -3 -5 1
-10 10 -10 9 0 14 -4 11 -8 -2 -4 5 -9 17 -9 12 -1 23 -7 25 -13 2 -5 8 -10
14 -10 6 0 21 -11 33 -24 13 -14 25 -23 28 -20 2 3 25 -9 50 -26 25 -16 50
-30 56 -30 6 0 11 -4 11 -8 0 -11 91 -58 103 -54 5 1 6 -2 2 -8 -3 -6 4 -10
17 -10 18 0 20 -2 8 -10 -12 -8 -12 -10 5 -10 11 0 31 -10 45 -23 14 -13 34
-21 45 -19 16 4 17 2 7 -11 -11 -13 -10 -15 7 -10 12 3 21 1 21 -6 0 -6 7 -11
16 -11 8 0 12 -4 9 -10 -3 -5 3 -10 15 -10 11 0 23 -7 26 -15 4 -8 10 -12 15
-9 5 3 9 0 9 -5 0 -6 9 -11 20 -11 11 0 20 -4 20 -10 0 -5 7 -10 16 -10 8 0
12 -4 9 -10 -3 -5 3 -10 15 -10 12 0 18 -4 15 -10 -4 -6 12 -10 39 -10 25 0
46 5 46 10 0 6 8 10 18 10 14 0 15 2 2 10 -10 7 -11 10 -2 10 7 0 19 18 28 40
9 22 19 38 24 35 4 -2 13 14 20 35 15 45 2 90 -25 90 -9 0 -14 4 -11 8 2 4 -9
14 -25 21 -16 7 -27 17 -23 22 3 5 2 9 -3 8 -22 -4 -43 2 -38 11 3 6 -2 10
-12 10 -10 0 -25 9 -33 20 -8 11 -22 20 -32 20 -10 0 -18 5 -18 10 0 6 -6 10
-13 10 -7 0 -22 8 -33 18 -10 10 -33 24 -51 32 -17 8 -29 18 -27 22 3 4 -4 8
-15 8 -12 0 -21 4 -21 9 0 5 -8 11 -17 15 -45 15 -125 70 -116 80 4 4 0 4 -10
0 -10 -3 -17 -1 -17 5 0 6 -6 11 -13 11 -8 0 -22 9 -32 20 -10 11 -27 20 -37
20 -11 0 -16 5 -13 10 3 6 -3 10 -15 10 -12 0 -18 5 -15 10 5 9 -15 15 -37 11
-5 0 -8 4 -8 9 0 6 -5 10 -10 10 -6 0 -23 11 -37 24 -15 14 -30 23 -35 20 -4
-3 -8 -1 -8 4 0 4 -16 14 -35 22 -19 7 -32 17 -29 22 3 5 2 7 -3 6 -12 -4 -73
25 -73 34 0 5 -5 8 -10 8 -6 0 -20 9 -32 20 -12 11 -34 26 -50 32 -15 7 -28
16 -28 20 0 5 -7 8 -16 8 -8 0 -12 5 -9 10 3 6 -3 10 -15 10 -12 0 -18 5 -15
10 3 6 0 10 -8 10 -8 0 -20 7 -27 15 -6 8 -15 14 -18 14 -15 -2 -52 14 -52 22
0 5 -8 9 -18 9 -10 0 -28 9 -40 20 -12 11 -26 20 -32 20 -5 0 -10 5 -10 10 0
6 -7 10 -15 10 -8 0 -15 5 -15 10 0 6 -6 10 -13 10 -7 0 -23 9 -35 20 -12 11
-26 20 -32 20 -6 0 -9 4 -5 9 8 14 -4 17 -53 13z"/>
<path d="M6906 3542 c-2 -4 4 -8 14 -8 10 0 16 4 14 8 -3 4 -9 8 -14 8 -5 0
-11 -4 -14 -8z"/>
<path d="M7190 3440 c0 -5 5 -10 11 -10 5 0 7 5 4 10 -3 6 -8 10 -11 10 -2 0
-4 -4 -4 -10z"/>
<path d="M7333 3365 c0 -8 4 -12 9 -9 5 3 6 10 3 15 -9 13 -12 11 -12 -6z"/>
<path d="M5822 3245 c-12 -5 -30 -27 -39 -47 -9 -21 -20 -38 -25 -38 -4 0 -8
-8 -8 -18 0 -10 -7 -27 -16 -38 -8 -10 -12 -13 -8 -5 4 9 3 12 -4 7 -6 -4 -9
-13 -6 -20 3 -8 0 -17 -7 -22 -8 -5 -10 -3 -5 7 4 8 -1 4 -10 -8 -15 -21 -62
-34 -50 -14 4 5 -4 7 -16 3 -14 -3 -19 -1 -14 6 4 7 -2 8 -23 2 -16 -4 -32 -6
-35 -3 -2 3 -17 6 -33 8 -15 1 -46 6 -68 10 -22 5 -59 8 -82 9 -33 1 -39 3
-31 14 6 7 8 15 4 19 -3 3 -6 1 -6 -4 0 -6 -8 -10 -17 -8 -10 1 -24 -3 -32 -9
-12 -9 -13 -8 -6 3 6 11 4 13 -11 7 -28 -12 -97 -11 -101 1 -2 6 -13 8 -25 5
-12 -3 -19 -1 -16 4 4 5 -15 10 -40 11 -71 2 -86 5 -99 16 -9 6 -13 6 -13 -2
0 -7 -8 -8 -25 -1 -16 6 -25 6 -25 0 0 -6 -9 -6 -22 -1 -13 4 -34 7 -46 6 -13
-1 -26 3 -28 9 -4 9 -111 13 -149 6 -5 -1 -13 -2 -17 -1 -4 0 -4 -7 -1 -16 4
-10 2 -14 -4 -10 -6 4 -11 -18 -12 -61 -1 -38 -7 -70 -14 -74 -9 -6 -8 -8 2
-8 11 0 11 -3 1 -15 -7 -8 -10 -24 -7 -35 3 -11 1 -23 -4 -26 -5 -3 -7 -9 -4
-14 3 -5 0 -12 -6 -16 -8 -4 -7 -9 2 -15 10 -6 11 -9 2 -9 -7 0 -13 -7 -13
-16 0 -9 5 -12 13 -8 9 6 9 5 0 -8 -17 -19 -4 -32 15 -15 13 9 14 9 8 0 -5 -9
2 -13 26 -14 94 -2 103 -4 100 -19 -2 -12 0 -12 11 2 10 12 17 14 32 6 21 -12
85 -17 85 -6 0 5 23 4 40 -2 3 -1 24 -2 48 -1 23 0 42 -4 42 -9 0 -6 5 -10 11
-10 5 0 7 6 3 13 -6 8 -3 8 9 -2 9 -7 23 -11 32 -8 8 4 17 2 19 -2 3 -5 24 -5
46 -1 36 7 40 5 40 -14 1 -20 2 -20 14 -3 11 14 15 15 25 3 6 -7 23 -11 39 -9
31 5 35 5 85 1 20 -2 37 1 37 6 0 4 6 3 14 -3 10 -8 16 -9 21 -1 4 7 13 6 28
-2 l22 -12 -25 -7 c-21 -6 -21 -7 -5 -8 20 -2 20 -2 1 -16 -11 -8 -16 -15 -12
-15 5 0 3 -7 -4 -15 -7 -8 -9 -15 -5 -15 4 0 -7 -15 -24 -32 -17 -18 -41 -46
-55 -61 -15 -18 -30 -26 -37 -21 -8 4 -9 3 -5 -4 9 -15 -73 -14 -91 1 -9 6
-13 5 -13 -4 -1 -10 -3 -9 -10 3 -7 11 -19 15 -41 11 -18 -2 -29 -1 -25 5 3 5
-6 8 -19 6 -14 -1 -25 1 -25 4 0 4 -35 6 -77 6 -43 -1 -84 3 -90 8 -7 6 -24 8
-38 6 -14 -3 -25 -2 -25 1 0 4 -12 6 -27 5 -16 0 -34 6 -41 15 -8 9 -11 10 -7
3 5 -10 -15 -12 -45 -2 -15 5 -101 1 -111 -6 -7 -4 -9 -3 -6 3 4 6 -4 13 -18
15 -13 3 -22 1 -19 -3 3 -5 -3 -9 -13 -10 -11 0 -13 -3 -5 -6 10 -4 10 -8 1
-19 -6 -8 -9 -23 -6 -34 3 -10 -2 -25 -10 -31 -11 -10 -11 -14 -1 -21 10 -8
10 -11 1 -15 -7 -2 -13 -16 -13 -29 0 -13 -6 -24 -12 -24 -8 0 -9 -3 -3 -8 13
-9 18 -35 5 -27 -6 4 -10 -4 -10 -19 0 -14 -5 -28 -10 -31 -8 -5 -7 -12 2 -23
10 -12 10 -14 1 -8 -9 5 -14 0 -14 -13 -1 -12 -2 -27 -3 -33 -1 -7 -4 -15 -8
-18 -3 -3 -1 -13 6 -22 14 -19 64 -27 85 -13 10 5 12 4 7 -3 -7 -12 5 -16 32
-13 6 1 12 -3 12 -8 0 -7 8 -7 23 -2 13 5 30 5 37 1 8 -5 22 -4 31 1 11 5 20
5 23 0 3 -5 15 -7 27 -4 12 4 25 0 30 -8 8 -12 11 -12 19 1 7 11 10 12 10 2 0
-8 6 -12 13 -9 6 2 21 1 33 -4 11 -4 27 -4 34 1 7 5 23 4 35 0 14 -5 27 -4 34
3 8 8 11 8 11 -2 0 -7 5 -9 10 -6 6 4 18 1 27 -7 9 -7 14 -8 10 -2 -4 7 0 15
8 18 13 5 14 2 1 -22 -8 -15 -29 -42 -46 -60 -21 -21 -34 -47 -37 -71 -4 -32
-1 -42 23 -65 16 -15 22 -25 14 -22 -8 3 -36 7 -63 10 -26 3 -51 8 -56 11 -5
3 -12 1 -16 -5 -4 -6 -12 -7 -24 -1 -10 6 -28 11 -42 13 -13 2 -29 7 -35 10
-6 4 -14 4 -18 1 -9 -9 -46 -11 -46 -2 0 9 -26 6 -36 -4 -4 -4 -16 1 -27 10
-15 13 -18 14 -12 3 8 -12 5 -12 -16 1 -18 12 -30 14 -42 7 -9 -5 -17 -5 -17
-1 0 10 -99 9 -120 0 -13 -6 -15 -34 -13 -168 1 -116 5 -164 15 -176 11 -14
11 -16 -1 -9 -9 6 -12 4 -9 -5 3 -8 10 -15 16 -15 23 -3 24 -4 12 -19 -9 -10
-9 -15 -1 -15 6 0 11 -7 11 -15 0 -9 7 -18 15 -21 8 -4 12 -11 8 -18 -4 -6 0
-5 9 2 14 11 16 10 14 -11 -2 -19 1 -23 16 -19 10 2 18 0 18 -6 0 -5 14 -12
30 -14 17 -3 30 -2 30 2 0 3 9 6 20 7 11 1 18 -2 15 -6 -2 -5 3 -33 12 -62 9
-30 17 -56 18 -59 6 -23 45 -71 67 -85 16 -9 25 -21 22 -27 -4 -6 -2 -8 3 -5
13 8 73 -21 73 -35 0 -6 3 -8 6 -5 4 4 19 -2 33 -11 14 -10 49 -29 76 -43 28
-13 52 -27 55 -30 3 -3 19 -9 35 -12 17 -3 59 -12 95 -20 97 -23 400 -11 384
14 -3 5 5 8 18 7 30 -3 138 41 138 55 0 6 3 8 6 4 4 -3 27 5 53 19 71 40 72
42 48 68 -12 12 -24 21 -26 19 -5 -3 -94 58 -109 76 -8 9 -11 10 -7 3 3 -6
-10 -3 -29 9 -20 12 -36 26 -36 32 0 6 -3 8 -6 4 -3 -3 -32 12 -64 34 -31 21
-63 39 -69 39 -6 0 -11 4 -11 8 0 4 -12 13 -27 20 -60 28 -73 38 -73 57 0 17
-2 17 -10 5 -8 -12 -10 -12 -11 5 0 11 -2 28 -4 37 -2 10 0 17 3 17 28 -4 44
3 38 17 -4 10 -2 13 6 8 8 -5 9 -2 5 10 -4 9 -3 14 2 11 5 -3 13 0 16 6 4 5
13 8 21 5 8 -3 11 0 8 8 -3 8 0 17 7 22 8 4 10 3 5 -4 -5 -8 0 -12 13 -12 11
0 23 -4 26 -10 3 -5 15 -10 26 -10 10 0 19 -4 19 -10 0 -5 7 -10 15 -10 8 0
15 -4 15 -10 0 -5 7 -10 15 -10 8 0 15 -4 15 -10 0 -5 5 -10 11 -10 5 0 37
-18 69 -40 32 -22 64 -40 69 -40 6 0 11 -4 11 -10 0 -5 7 -10 15 -10 8 0 15
-4 15 -9 0 -5 14 -14 30 -21 17 -7 30 -16 30 -20 0 -4 11 -11 24 -14 14 -3 31
-12 38 -19 7 -6 25 -18 40 -26 15 -8 25 -18 22 -23 -3 -4 2 -8 11 -8 9 0 43
-18 75 -40 32 -22 63 -40 69 -40 5 0 11 -3 13 -7 3 -7 55 -37 115 -67 13 -6
23 -14 23 -18 0 -5 7 -8 15 -8 8 0 15 -3 15 -8 0 -4 18 -13 40 -20 43 -13 62
-7 105 33 45 41 85 75 90 75 5 0 36 25 60 48 8 6 15 12 18 12 8 0 107 98 107
106 0 5 -15 15 -32 23 -34 15 -98 59 -110 76 -4 5 -8 7 -8 3 0 -4 -30 13 -66
37 -36 24 -74 47 -85 50 -10 4 -19 10 -19 14 0 4 -25 20 -55 36 -30 15 -55 32
-55 37 0 5 -4 6 -10 3 -5 -3 -10 -1 -10 4 0 6 -5 11 -10 11 -6 0 -51 27 -100
60 -50 32 -90 57 -90 54 0 -3 -7 2 -16 10 -8 9 -21 16 -28 16 -7 0 -21 9 -30
19 -10 11 -32 25 -49 32 -42 17 -78 45 -69 53 3 4 -1 4 -11 0 -9 -3 -17 -1
-17 4 0 6 -9 14 -20 17 -22 7 -28 27 -7 22 6 -1 12 6 12 15 0 9 4 20 9 25 5 5
6 2 2 -7 -4 -8 0 -6 8 4 9 11 16 16 16 12 0 -5 15 8 33 27 l32 36 90 -51 c50
-28 92 -53 95 -57 3 -3 17 -12 33 -20 15 -8 27 -18 27 -23 0 -5 5 -6 10 -3 6
3 10 1 10 -6 0 -7 3 -9 6 -6 4 4 19 -2 34 -13 16 -11 33 -20 40 -20 6 0 9 -4
6 -8 -3 -5 10 -16 29 -25 19 -9 35 -21 35 -27 0 -5 3 -9 8 -8 15 3 62 -22 62
-33 0 -6 7 -8 16 -5 8 3 12 2 9 -4 -3 -6 3 -10 14 -10 11 0 24 -8 30 -17 5
-10 13 -15 16 -11 4 4 16 -2 28 -13 11 -10 28 -19 36 -19 14 0 14 -1 1 -10
-13 -8 -12 -10 3 -10 16 0 45 -13 71 -33 36 -25 86 -56 86 -51 0 2 9 -4 21
-15 12 -11 34 -25 50 -31 16 -7 29 -16 29 -21 0 -5 11 -9 25 -9 14 0 25 4 25
9 0 5 9 13 20 16 11 4 18 11 15 16 -4 5 1 9 9 9 9 0 16 7 16 16 0 8 4 13 8 10
5 -3 14 4 22 14 8 10 18 16 23 13 6 -3 7 -2 4 3 -3 5 8 25 24 43 16 19 29 38
29 43 0 5 4 7 9 4 4 -3 13 6 19 19 7 14 17 25 25 25 7 0 14 11 15 24 1 16 -6
26 -23 34 -14 6 -25 16 -25 22 0 5 -7 10 -15 10 -8 0 -15 5 -15 11 0 5 -4 8
-9 5 -5 -3 -24 4 -42 17 -19 12 -63 40 -99 62 -36 21 -71 45 -78 51 -6 7 -21
16 -32 19 -11 3 -20 10 -20 15 0 4 -11 11 -25 14 -14 4 -25 11 -25 17 0 6 -4
8 -9 5 -5 -3 -23 7 -40 23 -17 16 -31 27 -31 25 0 -9 -82 40 -87 52 -3 8 -12
14 -19 14 -13 0 -34 12 -139 79 -37 24 -113 79 -125 91 -3 3 -12 6 -20 8 -8 2
-16 8 -18 13 -2 5 -12 9 -23 9 -10 0 -19 7 -19 15 0 8 -3 14 -7 14 -20 -3 -34
2 -28 11 3 6 -1 7 -9 4 -9 -3 -16 -1 -16 5 0 6 -3 10 -7 9 -11 -4 -73 23 -73
31 0 4 -16 15 -35 25 -19 11 -32 24 -28 30 3 6 3 8 -1 4 -10 -8 -67 12 -61 21
2 4 -1 8 -8 8 -16 0 -133 71 -148 90 -11 12 -4 14 57 8 38 -4 85 -10 105 -14
21 -5 44 -4 54 2 13 7 16 6 11 -2 -7 -11 5 -15 33 -12 7 2 11 -2 7 -7 -6 -10
24 -9 41 1 6 4 14 3 18 -2 4 -7 15 -7 30 -1 14 5 25 6 25 1 0 -8 52 -6 77 4 7
2 61 -24 120 -59 60 -34 119 -69 133 -77 14 -8 27 -16 30 -19 8 -8 141 -90
146 -90 3 0 32 -18 64 -40 32 -22 62 -40 65 -40 4 0 25 -13 48 -29 23 -15 112
-70 197 -121 85 -51 167 -101 182 -112 14 -10 33 -18 42 -18 9 0 16 -4 16 -10
0 -15 29 -12 46 5 9 8 12 15 8 15 -4 0 1 9 11 20 10 11 14 20 9 20 -5 0 -1 5
9 11 9 5 17 16 17 23 0 7 9 21 20 31 11 10 20 23 20 28 0 5 7 15 15 21 9 6 18
28 21 48 6 33 4 38 -25 53 -18 9 -80 46 -139 83 -59 37 -120 73 -134 81 -15 8
-37 22 -47 33 -11 10 -22 18 -25 18 -7 0 -256 155 -281 175 -11 9 -30 18 -42
21 -13 4 -23 10 -23 14 0 4 -8 10 -17 13 -22 7 -72 37 -91 55 -7 6 -17 12 -22
12 -5 0 -15 6 -22 13 -17 17 -125 88 -160 106 -16 8 -28 18 -28 23 0 4 -9 8
-20 8 -11 0 -20 5 -20 10 0 6 -5 10 -11 10 -5 0 -36 17 -67 38 -31 21 -70 44
-87 52 -16 8 -32 18 -35 22 -3 3 -12 8 -20 10 -8 2 -19 7 -25 11 -5 4 -39 26
-75 49 -36 23 -67 44 -70 47 -14 18 -56 26 -78 16z"/>
<path d="M6433 3185 c0 -8 4 -12 9 -9 5 3 6 10 3 15 -9 13 -12 11 -12 -6z"/>
<path d="M2315 3060 c-3 -5 -1 -10 4 -10 6 0 11 5 11 10 0 6 -2 10 -4 10 -3 0
-8 -4 -11 -10z"/>
<path d="M4905 2600 c-3 -6 1 -7 9 -4 18 7 21 14 7 14 -6 0 -13 -4 -16 -10z"/>
<path d="M6135 2601 c-3 -5 -2 -12 3 -15 5 -3 9 1 9 9 0 17 -3 19 -12 6z"/>
<path d="M4925 2579 c-3 -4 2 -6 10 -5 21 3 28 13 10 13 -9 0 -18 -4 -20 -8z"/>
<path d="M2099 2253 c-13 -16 -12 -17 4 -4 9 7 17 15 17 17 0 8 -8 3 -21 -13z"/>
<path d="M2475 2021 c-3 -5 -2 -12 3 -15 5 -3 9 1 9 9 0 17 -3 19 -12 6z"/>
<path d="M3601 668 c-31 -15 -46 -31 -61 -66 -27 -61 -38 -161 -19 -173 12 -7
12 -9 0 -9 -8 0 -3 -9 12 -20 14 -11 29 -20 34 -19 4 1 10 0 13 -1 17 -6 40
-7 40 -2 0 10 -20 38 -20 29 0 -14 -60 26 -65 44 -7 21 19 121 41 158 17 28
48 49 69 46 6 -1 23 -7 39 -14 35 -14 53 -1 29 22 -29 25 -67 27 -112 5z"/>
<path d="M2883 665 c-61 -16 -82 -36 -85 -81 -3 -65 10 -103 40 -111 33 -8 75
-50 69 -67 -4 -9 -18 -13 -36 -12 -37 3 -37 3 -48 45 l-9 34 -13 -41 c-18 -52
-4 -73 45 -70 19 1 34 5 34 9 0 4 6 7 13 6 35 -1 48 4 41 16 -5 7 0 6 11 -3
10 -8 16 -10 12 -3 -4 6 -1 14 5 16 10 4 10 6 1 6 -7 1 -13 7 -13 15 0 8 -15
24 -32 35 -66 42 -89 69 -90 107 -2 50 27 70 105 73 33 1 64 4 69 7 20 12 27
-102 16 -241 -2 -17 2 -30 9 -30 6 0 15 -3 18 -7 4 -4 15 -4 24 1 9 4 23 7 31
6 8 -1 21 3 28 8 8 6 12 6 12 -2 0 -7 8 -8 25 -1 14 5 25 8 25 6 0 -6 46 33
84 70 47 46 67 74 72 97 2 11 10 27 18 35 12 12 16 6 32 -39 24 -73 26 -83 9
-69 -9 7 -15 8 -19 1 -4 -6 -13 -8 -21 -4 -8 3 -15 0 -15 -6 0 -6 8 -12 18
-13 53 -4 77 -15 92 -42 7 -14 18 -22 26 -19 19 7 18 42 -1 49 -14 6 -74 118
-80 153 -2 9 -4 17 -5 19 -2 2 -5 21 -9 54 -1 14 -41 -20 -41 -36 0 -32 -123
-204 -142 -199 -4 2 -8 -2 -8 -7 0 -6 -7 -10 -15 -10 -8 0 -15 -4 -15 -9 0 -5
-8 -8 -17 -6 -10 1 -22 0 -28 -4 -15 -9 -49 -8 -60 3 -11 9 -11 61 -1 87 4 9
21 17 39 18 54 3 56 4 51 13 -3 5 -10 6 -15 3 -5 -4 -9 -2 -9 2 0 5 -15 8 -32
8 -32 0 -33 1 -34 45 -2 64 1 67 57 65 46 -2 70 8 55 23 -11 10 -252 8 -293
-3z"/>
<path d="M3845 662 c-13 -35 -45 -194 -45 -227 0 -25 5 -37 18 -41 9 -3 24 -8
32 -11 22 -8 54 -8 68 1 6 4 12 3 12 -3 0 -18 33 1 67 36 40 43 59 133 41 190
-4 12 -3 25 3 29 19 11 4 38 -22 39 -25 2 -26 0 -22 -39 8 -95 9 -147 1 -152
-5 -3 -6 -9 -3 -13 2 -5 -4 -18 -14 -30 -23 -26 -88 -54 -96 -41 -3 5 -12 7
-19 4 -21 -8 -43 37 -29 59 3 6 8 30 10 54 2 24 15 68 28 98 13 30 23 56 22
56 -13 9 -47 3 -52 -9z"/>
<path d="M4109 678 c-1 -2 -3 -12 -4 -23 -1 -11 -8 -67 -16 -125 -22 -167 -26
-155 53 -155 38 0 68 4 68 9 0 5 6 4 13 -2 8 -7 18 -7 27 -2 8 5 18 6 22 4 8
-5 9 -4 13 34 2 21 1 22 -21 7 -12 -8 -36 -16 -53 -17 -16 -1 -27 -6 -25 -10
3 -4 0 -8 -5 -8 -6 0 -11 6 -11 13 0 8 -4 7 -10 -3 -6 -10 -10 -11 -10 -2 0 6
-9 12 -20 12 -18 0 -20 7 -20 58 0 32 5 63 12 70 9 9 9 12 1 12 -15 0 2 56 25
82 18 22 9 48 -18 48 -11 0 -21 -1 -21 -2z"/>
<path d="M4339 618 c0 -35 -2 -72 -4 -83 -3 -11 -5 -44 -6 -73 -1 -29 -6 -55
-11 -58 -4 -3 -8 -10 -8 -15 0 -6 5 -7 10 -4 6 3 10 1 10 -4 0 -6 18 -10 40
-9 25 1 37 5 33 12 -5 8 -2 8 8 0 18 -14 255 -12 270 3 6 6 9 25 7 43 -2 28
-9 35 -37 45 -50 17 -73 49 -67 99 5 43 26 66 61 66 24 0 55 -28 55 -50 0 -10
3 -10 15 0 19 16 19 54 0 70 -8 6 -35 12 -61 12 -38 0 -52 -5 -73 -28 -23 -25
-26 -36 -27 -111 0 -46 3 -83 8 -83 4 0 7 5 5 11 -4 21 34 17 60 -5 34 -29 26
-56 -18 -56 -22 0 -32 5 -36 20 -6 21 -33 28 -33 8 0 -6 -3 -9 -6 -5 -4 3 -19
0 -34 -8 -15 -8 -49 -16 -75 -18 -43 -3 -48 -1 -57 22 -11 29 -3 166 12 206
16 42 12 55 -15 55 -24 0 -25 -3 -26 -62z"/>
<path d="M5124 631 c-43 -21 -64 -64 -68 -136 -4 -66 0 -85 19 -85 7 0 15 -4
17 -10 2 -5 24 -12 51 -15 40 -5 56 -1 103 25 30 16 53 26 49 20 -8 -13 39
-42 85 -50 43 -8 68 7 104 63 21 31 42 26 49 -12 4 -19 16 -32 37 -41 78 -32
127 -14 159 59 47 111 8 191 -95 191 -30 0 -45 -8 -76 -40 -22 -22 -36 -45
-32 -51 5 -8 1 -8 -13 0 -11 5 -26 24 -33 41 -15 35 -59 63 -80 50 -8 -5 -17
-7 -21 -4 -4 2 -12 -3 -19 -11 -7 -8 -16 -12 -21 -9 -5 3 -8 2 -7 -3 4 -13
-25 -53 -38 -53 -7 0 -19 11 -28 25 -35 54 -91 72 -142 46z m78 -26 c13 13 50
-46 51 -82 1 -64 -10 -92 -41 -99 -15 -4 -33 -11 -39 -17 -8 -6 -13 -6 -13 0
0 5 -10 9 -22 8 -13 -1 -31 4 -40 12 -24 21 -16 113 13 154 27 38 60 53 75 33
6 -7 13 -12 16 -9z m269 -70 c1 -11 2 -27 2 -35 1 -20 -24 -70 -34 -70 -4 0
-14 -6 -21 -14 -12 -11 -21 -11 -61 2 -26 8 -47 20 -48 26 0 6 -2 18 -4 27 -5
26 29 91 66 128 l33 34 33 -39 c18 -22 33 -48 34 -59z m205 67 c29 -15 48 -65
40 -104 -8 -43 -44 -86 -77 -92 -57 -9 -121 70 -96 119 16 31 58 79 76 86 20
8 30 6 57 -9z"/>
<path d="M4916 624 c-5 -12 -2 -15 9 -10 22 8 43 -44 38 -97 -2 -23 -4 -51 -5
-63 0 -11 -13 -28 -31 -37 -22 -13 -27 -21 -19 -29 14 -14 76 -12 105 4 21 12
21 12 2 16 -28 6 -33 18 -27 60 3 20 6 66 6 102 l1 65 -36 3 c-27 2 -38 -1
-43 -14z"/>
<path d="M3673 554 c-16 -16 -17 -44 -2 -44 5 0 7 -4 4 -10 -3 -5 1 -10 9 -10
19 0 19 1 5 -40 -7 -20 -22 -37 -40 -44 -20 -8 -25 -16 -19 -26 6 -9 13 -11
22 -4 7 6 23 9 36 8 12 -1 20 1 17 4 -2 3 2 10 11 17 22 16 25 142 4 155 -9 6
-17 5 -21 -2 -4 -7 -8 -7 -10 0 -2 6 -9 5 -16 -4z"/>
</g>
</svg>
