<?xml version="1.0" standalone="no"?>
<!DOCTYPE svg PUBLIC "-//W3C//DTD SVG 20010904//EN"
 "http://www.w3.org/TR/2001/REC-SVG-20010904/DTD/svg10.dtd">
<svg version="1.0" xmlns="http://www.w3.org/2000/svg"
 width="255.000000pt" height="255.000000pt" viewBox="0 0 255.000000 255.000000"
 preserveAspectRatio="xMidYMid meet">
<metadata>
Created by potrace 1.11, written by Peter Selinger 2001-2013
</metadata>
<g transform="translate(0.000000,255.000000) scale(0.100000,-0.100000)"
fill="#000000" stroke="none">
<path d="M983 2123 c-23 -8 -13 -22 15 -21 15 1 37 -4 48 -10 14 -7 26 -7 44
4 14 7 39 14 55 14 23 0 27 3 14 10 -10 6 -30 5 -55 -2 -21 -6 -43 -10 -49 -9
-5 2 -21 7 -35 11 -14 4 -31 5 -37 3z"/>
<path d="M1390 2111 c0 -16 78 -27 119 -17 42 10 36 16 -15 14 -27 -2 -61 0
-76 5 -16 4 -28 3 -28 -2z"/>
<path d="M990 1968 c-19 -6 -57 -11 -85 -13 -68 -2 -75 -4 -75 -15 0 -5 12 -8
28 -8 15 1 41 -1 58 -6 23 -5 36 -3 47 8 9 9 27 16 41 16 16 0 26 6 26 15 0 8
-1 15 -2 14 -2 -1 -19 -6 -38 -11z"/>
<path d="M1529 1949 c19 -6 44 -17 54 -24 15 -10 25 -11 39 -4 10 6 26 9 36 8
32 -3 55 1 48 8 -4 4 -33 8 -64 10 -31 1 -77 5 -102 7 -44 5 -44 5 -11 -5z"/>
<path d="M389 1882 c-18 -14 -53 -33 -77 -42 -48 -16 -76 -49 -31 -36 13 4 40
10 59 13 20 4 44 18 58 35 13 15 30 28 38 28 18 0 18 16 -1 24 -8 3 -29 -7
-46 -22z"/>
<path d="M2060 1901 c0 -5 9 -12 20 -16 11 -3 28 -17 39 -31 11 -14 29 -24 44
-24 14 0 37 -4 51 -10 14 -5 26 -7 26 -3 0 12 -36 32 -60 33 -14 0 -41 14 -60
30 -34 30 -60 39 -60 21z"/>
<path d="M1017 1809 c-11 -6 -31 -9 -45 -6 -14 3 -37 0 -51 -6 -24 -10 -22
-11 27 -18 39 -5 61 -3 80 7 15 8 33 14 40 14 6 0 12 5 12 10 0 13 -40 12 -63
-1z"/>
<path d="M1465 1799 c-5 -7 -4 -10 2 -6 5 3 22 -1 38 -9 19 -10 42 -12 77 -8
59 8 55 17 -9 19 -27 0 -60 5 -74 9 -18 5 -29 4 -34 -5z"/>
<path d="M2115 1710 c-3 -5 7 -16 23 -24 15 -8 33 -26 40 -40 7 -15 17 -23 25
-20 7 2 27 -2 43 -11 16 -8 35 -15 43 -15 27 0 -20 39 -56 46 -18 3 -38 15
-44 25 -12 24 -66 52 -74 39z"/>
<path d="M336 1685 c-14 -13 -26 -28 -26 -32 0 -5 -11 -10 -25 -11 -50 -4 -94
-49 -65 -67 6 -3 10 -2 10 3 0 11 45 32 70 32 10 0 28 14 40 31 13 17 33 35
47 40 13 5 21 13 18 19 -11 17 -41 11 -69 -15z"/>
<path d="M990 1674 c-24 -10 -52 -13 -89 -10 -40 4 -61 2 -78 -9 -13 -9 -23
-19 -23 -23 0 -15 174 -6 212 11 21 9 47 17 58 17 24 0 27 15 4 24 -24 9 -46
7 -84 -10z"/>
<path d="M1463 1673 c-7 -2 -13 -10 -13 -15 0 -6 3 -9 6 -6 3 3 29 -1 57 -9
29 -9 91 -16 139 -17 77 -1 85 1 73 14 -10 10 -34 14 -77 13 -35 -1 -82 5
-106 13 -44 15 -58 16 -79 7z"/>
<path d="M2008 1595 c-8 -8 70 -85 87 -85 9 0 29 -7 45 -15 17 -9 30 -11 30
-5 0 16 -38 50 -56 50 -9 0 -32 14 -51 30 -33 30 -45 35 -55 25z"/>
<path d="M447 1567 c-12 -13 -37 -29 -55 -36 -32 -13 -52 -37 -52 -62 0 -8 7
-6 19 5 10 9 35 19 54 23 23 3 39 12 42 24 4 10 17 27 31 38 29 23 30 31 4 31
-12 0 -31 -10 -43 -23z"/>
<path d="M980 1529 c-45 -13 -80 -17 -116 -13 -51 6 -124 -9 -124 -26 0 -5 -3
-16 -6 -24 -5 -14 -2 -15 21 -6 14 5 65 10 113 10 50 0 104 6 127 15 22 8 54
14 72 15 35 0 46 10 37 34 -8 21 -42 19 -124 -5z"/>
<path d="M1440 1520 c0 -16 7 -20 34 -20 18 0 50 -7 71 -15 24 -11 74 -17 145
-18 97 -2 107 -1 99 14 -10 20 -67 30 -123 23 -26 -4 -71 2 -123 15 -100 26
-103 26 -103 1z"/>
<path d="M475 1430 c-21 -22 -44 -40 -50 -40 -19 0 -79 -32 -92 -49 -7 -9 -13
-27 -13 -40 0 -22 1 -23 18 -8 21 19 104 57 112 52 3 -2 28 18 55 46 26 27 55
49 62 49 27 0 7 25 -23 28 -23 2 -37 -6 -69 -38z"/>
<path d="M1940 1462 c0 -4 13 -15 29 -25 16 -9 41 -31 55 -47 13 -17 31 -30
39 -30 8 0 40 -13 71 -28 54 -28 62 -26 48 11 -8 20 -55 47 -83 47 -11 0 -19
5 -19 10 0 6 -6 10 -13 10 -6 0 -25 14 -40 30 -19 20 -38 30 -58 30 -16 0 -29
-4 -29 -8z"/>
<path d="M1050 1399 c-25 -3 -61 -11 -80 -16 -19 -6 -74 -11 -122 -12 -118 -3
-142 -10 -146 -45 -3 -26 -1 -27 25 -22 15 3 69 8 118 11 50 4 122 13 160 21
39 7 80 14 93 14 24 0 29 18 10 41 -10 12 -23 14 -58 8z"/>
<path d="M1436 1375 c4 -8 9 -15 13 -15 3 0 16 -3 29 -6 30 -9 28 10 -3 24
-35 16 -46 15 -39 -3z"/>
<path d="M1876 1363 c-15 -16 -3 -43 32 -69 20 -16 50 -40 66 -55 16 -15 52
-34 80 -43 28 -9 67 -30 87 -46 36 -29 37 -29 43 -7 8 31 -18 54 -109 98 -44
21 -93 53 -110 70 -34 35 -79 61 -89 52z"/>
<path d="M548 1311 c-49 -44 -127 -91 -153 -91 -6 0 -24 -12 -40 -27 -25 -23
-29 -34 -25 -62 l5 -35 37 33 c20 17 65 43 99 56 36 14 75 39 93 58 17 19 46
44 63 56 28 19 31 25 23 42 -17 31 -45 22 -102 -30z"/>
<path d="M1565 1351 c-3 -6 4 -9 15 -8 11 1 20 5 20 9 0 11 -28 10 -35 -1z"/>
<path d="M1654 1349 c-3 -6 -15 -9 -25 -6 -12 3 -19 0 -19 -9 0 -11 18 -14 83
-13 45 1 70 4 55 6 -17 3 -28 11 -28 19 0 9 -6 14 -12 11 -7 -2 -12 -10 -10
-16 2 -13 0 -13 -22 -5 -9 3 -13 10 -10 15 3 5 3 9 0 9 -3 0 -8 -5 -12 -11z"/>
<path d="M1780 1336 c0 -8 5 -18 10 -21 6 -3 10 3 10 14 0 12 -4 21 -10 21 -5
0 -10 -6 -10 -14z"/>
<path d="M1810 1334 c0 -8 5 -12 10 -9 6 3 10 10 10 16 0 5 -4 9 -10 9 -5 0
-10 -7 -10 -16z"/>
<path d="M995 1244 c-222 -31 -259 -33 -276 -18 -20 18 -51 4 -123 -56 -27
-23 -81 -57 -120 -76 -39 -19 -83 -45 -99 -57 -25 -21 -26 -26 -16 -55 6 -18
13 -32 15 -32 2 0 34 20 71 44 37 24 86 53 108 64 22 12 60 37 84 56 25 18 51
32 58 29 7 -3 13 -1 13 5 0 5 10 7 23 5 13 -3 77 2 142 11 66 8 150 18 188 22
37 3 70 10 72 15 3 4 3 20 -1 34 -7 28 -1 28 -139 9z"/>
<path d="M1410 1220 c0 -11 3 -20 8 -20 4 0 18 -3 32 -6 l25 -6 -28 19 c-15
11 -24 23 -20 26 3 4 1 7 -5 7 -7 0 -12 -9 -12 -20z"/>
<path d="M1440 1231 c0 -6 18 -11 40 -11 30 0 40 -4 40 -16 0 -15 10 -16 80
-11 48 3 80 1 80 -5 0 -5 -4 -7 -8 -4 -4 2 -14 1 -22 -5 -11 -6 -8 -9 13 -9
15 0 27 5 27 10 0 6 7 10 16 10 8 0 13 -4 10 -8 -3 -4 8 -13 25 -19 28 -11 41
-2 18 13 -8 5 -8 9 1 14 6 4 -55 15 -137 24 -81 9 -156 19 -165 22 -10 3 -18
1 -18 -5z m158 -28 c-10 -2 -28 -2 -40 0 -13 2 -5 4 17 4 22 1 32 -1 23 -4z"/>
<path d="M1796 1215 c-21 -31 -20 -45 2 -45 14 0 15 -2 2 -10 -11 -7 -7 -10
17 -10 22 0 48 -12 78 -35 25 -19 67 -45 93 -58 66 -34 93 -49 125 -71 31 -21
33 -21 42 15 6 23 0 29 -52 61 -32 20 -75 43 -96 52 -20 8 -59 33 -85 54 -26
22 -61 47 -79 56 -30 15 -32 15 -47 -9z"/>
<path d="M605 1004 c-99 -63 -184 -119 -189 -124 -11 -11 12 -70 27 -70 6 0
71 39 145 87 109 70 145 88 190 95 30 5 59 7 64 6 14 -5 -89 -68 -109 -68 -9
0 -13 -3 -10 -7 4 -3 -44 -39 -106 -79 -169 -109 -156 -95 -124 -138 l28 -36
57 37 c195 125 208 132 257 138 47 6 49 6 28 -9 -11 -9 -39 -26 -60 -38 -61
-35 -243 -158 -243 -164 0 -12 56 -74 67 -74 6 0 51 26 100 59 49 32 98 61
110 65 30 10 63 16 63 11 0 -1 -54 -38 -120 -80 -66 -42 -120 -81 -120 -86 0
-11 79 -69 94 -69 6 0 60 32 121 70 60 39 114 69 119 67 25 -8 11 -25 -49 -62
-35 -22 -64 -44 -65 -48 0 -16 86 -47 130 -47 55 0 143 42 159 76 6 13 22 29
35 35 33 15 49 57 40 104 l-7 37 -64 -7 c-44 -4 -69 -3 -79 6 -25 20 -16 27
54 34 37 4 70 9 73 11 9 5 -9 86 -21 98 -5 5 -47 4 -102 -2 -80 -9 -95 -8
-110 5 -10 9 -15 19 -13 23 3 4 46 11 97 15 51 5 98 9 103 9 10 1 9 85 0 95
-5 4 -196 -15 -252 -25 -14 -3 -27 4 -37 18 -19 27 -20 35 -3 35 23 0 232 24
255 29 18 4 22 11 22 44 0 22 -5 40 -11 40 -9 0 -184 -20 -299 -34 -26 -4 -39
0 -50 15 -14 18 -22 15 -195 -97z"/>
<path d="M1385 1078 c-8 -36 -8 -36 41 -43 21 -4 49 -8 62 -10 13 -2 55 -7 93
-11 38 -4 69 -8 69 -10 0 -13 -25 -54 -34 -55 -26 -3 -154 10 -197 20 -21 5
-41 6 -46 2 -13 -8 -24 -79 -14 -85 4 -3 30 -8 57 -11 149 -17 150 -17 115
-49 -11 -10 -23 -16 -28 -13 -4 3 -39 8 -78 12 -38 4 -73 9 -77 11 -7 5 -14
-14 -24 -68 -5 -29 -3 -38 7 -39 25 0 104 -11 107 -14 2 -1 0 -14 -3 -27 -6
-24 -8 -24 -66 -15 -33 6 -62 7 -65 4 -3 -2 -5 -23 -6 -46 0 -39 27 -99 39
-87 4 3 15 -8 25 -25 21 -35 107 -79 154 -79 41 0 124 29 124 43 0 7 -25 27
-55 46 -30 18 -55 39 -55 46 0 24 27 23 56 -1 16 -13 32 -23 36 -24 3 0 39
-20 79 -45 80 -49 83 -49 147 10 l24 22 -39 23 c-21 13 -47 29 -58 35 -68 39
-125 78 -125 86 0 17 47 9 81 -14 70 -46 157 -97 167 -97 5 0 24 15 41 32 l32
33 -28 23 c-15 12 -57 39 -93 59 -36 20 -74 45 -84 55 -11 10 -25 18 -30 18
-6 0 -29 14 -51 31 l-40 31 35 -6 c19 -3 46 -8 60 -10 14 -2 77 -36 140 -75
63 -39 119 -71 125 -71 5 0 17 13 27 29 20 36 22 33 -112 116 -52 32 -103 67
-113 77 -10 10 -23 18 -30 18 -7 0 -37 16 -67 36 l-55 35 69 -5 c77 -6 95 -14
250 -110 59 -37 109 -66 111 -64 1 2 8 13 14 26 16 31 9 39 -92 99 -45 28
-124 76 -176 108 l-94 57 -16 -21 -17 -22 -129 17 c-200 25 -183 26 -190 -8z"/>
<path d="M900 335 c-10 -13 -9 -19 6 -36 17 -19 17 -20 0 -13 -13 5 -17 3 -14
-7 5 -15 96 -14 113 2 12 12 55 12 55 -1 0 -5 18 -10 40 -10 31 0 38 3 34 15
-4 8 -1 15 5 15 6 0 11 -7 11 -15 0 -24 45 -18 59 8 11 22 11 22 7 0 -3 -20 1
-22 66 -25 83 -4 98 3 81 32 -18 28 -17 46 2 30 12 -10 15 -10 15 4 0 24 -37
20 -45 -5 -5 -13 -1 -25 9 -32 14 -10 10 -12 -20 -14 -35 -2 -36 -1 -32 33 2
19 0 34 -4 34 -4 0 -8 -17 -8 -37 0 -28 -3 -34 -10 -23 -6 10 -10 11 -10 3 0
-7 -7 -13 -16 -13 -13 0 -15 7 -11 35 5 32 4 35 -18 35 -19 0 -24 -6 -27 -32
-2 -17 -9 -34 -17 -36 -11 -4 -12 3 -7 32 4 23 3 36 -4 36 -5 0 -10 -9 -10
-20 0 -17 -5 -19 -27 -14 -20 4 -24 3 -14 -4 15 -11 6 -36 -10 -27 -17 11 -9
46 14 55 l22 9 -23 0 c-15 1 -26 -8 -34 -25 l-12 -27 -12 27 -11 27 -27 -35
c-15 -20 -31 -36 -37 -36 -14 0 -11 28 4 33 10 4 10 6 0 6 -7 1 -13 6 -13 12
0 6 7 9 15 5 8 -3 15 -1 15 4 0 16 -86 12 -100 -5z m50 -27 c0 -27 -1 -27 -20
-11 -11 10 -20 23 -20 30 0 6 9 11 20 10 15 -1 20 -8 20 -29z m100 2 c0 -5 -5
-10 -11 -10 -5 0 -7 5 -4 10 3 6 8 10 11 10 2 0 4 -4 4 -10z"/>
<path d="M1430 325 c10 -12 10 -19 2 -27 -7 -7 -12 -15 -12 -19 0 -11 133 -8
147 3 7 5 14 5 18 -2 3 -5 15 -10 25 -10 21 0 37 40 25 59 -8 14 -42 14 -50 1
-4 -6 -12 -7 -18 -3 -7 5 -32 9 -57 8 -38 0 -45 -3 -51 -25 l-7 -25 -1 28 c-1
18 -6 27 -17 27 -14 0 -14 -3 -4 -15z m73 -1 c9 -10 -4 -34 -19 -34 -8 0 -14
6 -14 13 0 22 19 35 33 21z m57 -14 c0 -11 -7 -20 -15 -20 -15 0 -21 21 -8 33
12 13 23 7 23 -13z m64 5 c3 -9 -1 -18 -10 -22 -19 -7 -28 2 -21 22 8 19 23
19 31 0z"/>
</g>
</svg>
